<svg width="1282" height="1226" viewBox="0 0 1282 1226" fill="none" xmlns="http://www.w3.org/2000/svg">
<rect width="1281.93" height="1226" fill="black"/>
<rect width="1281.93" height="746.744" transform="translate(0 479.258)" fill="#5E83E6"/>
<path d="M49.2851 599.203H38.0837V527.922H73.4189V599.203H62.0139V538.105H49.2851V599.203ZM98.0372 527.922C103.672 527.922 107.847 529.415 110.562 532.402C113.346 535.389 114.737 539.768 114.737 545.538V554.805C114.737 560.575 113.346 564.954 110.562 567.941C107.847 570.928 103.672 572.422 98.0372 572.422H92.742V599.203H81.5407V527.922H98.0372ZM92.742 538.105V562.239H98.0372C99.8023 562.239 101.16 561.763 102.11 560.813C103.061 559.863 103.536 558.098 103.536 555.518V544.826C103.536 542.246 103.061 540.481 102.11 539.53C101.16 538.58 99.8023 538.105 98.0372 538.105H92.742ZM130.01 582.808C130.01 585.388 130.519 587.221 131.537 588.307C132.623 589.326 134.049 589.835 135.814 589.835C137.579 589.835 138.971 589.326 139.989 588.307C141.075 587.221 141.618 585.388 141.618 582.808V544.316C141.618 541.737 141.075 539.938 139.989 538.919C138.971 537.833 137.579 537.29 135.814 537.29C134.049 537.29 132.623 537.833 131.537 538.919C130.519 539.938 130.01 541.737 130.01 544.316V582.808ZM118.808 545.029C118.808 539.259 120.268 534.846 123.187 531.791C126.106 528.669 130.315 527.107 135.814 527.107C141.313 527.107 145.522 528.669 148.441 531.791C151.36 534.846 152.82 539.259 152.82 545.029V582.096C152.82 587.866 151.36 592.313 148.441 595.435C145.522 598.49 141.313 600.018 135.814 600.018C130.315 600.018 126.106 598.49 123.187 595.435C120.268 592.313 118.808 587.866 118.808 582.096V545.029ZM171.104 557.962H186.48V568.145H171.104V589.02H190.452V599.203H159.902V527.922H190.452V538.105H171.104V557.962ZM211.758 570.792L208.296 577.31V599.203H197.094V527.922H208.296V558.98L223.163 527.922H234.161L218.581 559.693L234.161 599.203H222.654L211.758 570.792ZM236.204 527.922H270.826V538.105H259.116V599.203H247.914V538.105H236.204V527.922Z" fill="black"/>
<path d="M598.314 573.253L596.614 576.453V587.203H591.114V552.203H596.614V567.453L603.914 552.203H609.314L601.664 567.803L609.314 587.203H603.664L598.314 573.253ZM629.567 587.203H624.017L623.067 580.853H616.317L615.367 587.203H610.317L615.917 552.203H623.967L629.567 587.203ZM617.017 576.103H622.317L619.667 558.403L617.017 576.103ZM639.281 573.253L637.581 576.453V587.203H632.081V552.203H637.581V567.453L644.881 552.203H650.281L642.631 567.803L650.281 587.203H644.631L639.281 573.253ZM666.048 587.203H660.548V552.203H677.898V587.203H672.298V557.203H666.048V587.203ZM686.886 579.153C686.886 580.42 687.136 581.32 687.636 581.853C688.169 582.353 688.869 582.603 689.736 582.603C690.602 582.603 691.286 582.353 691.786 581.853C692.319 581.32 692.586 580.42 692.586 579.153V560.253C692.586 558.986 692.319 558.103 691.786 557.603C691.286 557.07 690.602 556.803 689.736 556.803C688.869 556.803 688.169 557.07 687.636 557.603C687.136 558.103 686.886 558.986 686.886 560.253V579.153ZM681.386 560.603C681.386 557.77 682.102 555.603 683.536 554.103C684.969 552.57 687.036 551.803 689.736 551.803C692.436 551.803 694.502 552.57 695.936 554.103C697.369 555.603 698.086 557.77 698.086 560.603V578.803C698.086 581.636 697.369 583.82 695.936 585.353C694.502 586.853 692.436 587.603 689.736 587.603C687.036 587.603 684.969 586.853 683.536 585.353C682.102 583.82 681.386 581.636 681.386 578.803V560.603ZM707.063 587.203H701.563V552.203H716.113V557.203H707.063V587.203ZM726.704 552.203C729.471 552.203 731.521 552.936 732.854 554.403C734.221 555.87 734.904 558.02 734.904 560.853V565.403C734.904 568.236 734.221 570.386 732.854 571.853C731.521 573.32 729.471 574.053 726.704 574.053H724.104V587.203H718.604V552.203H726.704ZM724.104 557.203V569.053H726.704C727.571 569.053 728.238 568.82 728.704 568.353C729.171 567.886 729.404 567.02 729.404 565.753V560.503C729.404 559.236 729.171 558.37 728.704 557.903C728.238 557.436 727.571 557.203 726.704 557.203H724.104ZM738.903 582.203C739.203 582.236 739.52 582.253 739.853 582.253C740.187 582.253 740.503 582.253 740.803 582.253C741.237 582.253 741.637 582.203 742.003 582.103C742.403 582.003 742.737 581.82 743.003 581.553C743.303 581.286 743.52 580.903 743.653 580.403C743.82 579.903 743.903 579.27 743.903 578.503L735.903 552.203H741.403L747.453 572.703L752.453 552.203H757.953L750.753 578.003C750.12 580.403 749.47 582.253 748.803 583.553C748.17 584.82 747.487 585.736 746.753 586.303C746.02 586.836 745.22 587.136 744.353 587.203C743.52 587.27 742.587 587.303 741.553 587.303C741.053 587.303 740.603 587.303 740.203 587.303C739.803 587.303 739.37 587.27 738.903 587.203V582.203ZM770.85 560.803C770.85 559.236 770.584 558.186 770.05 557.653C769.55 557.086 768.867 556.803 768 556.803C767.134 556.803 766.434 557.07 765.9 557.603C765.4 558.103 765.15 558.986 765.15 560.253V564.003H759.95V560.603C759.95 557.77 760.634 555.603 762 554.103C763.4 552.57 765.45 551.803 768.15 551.803C770.85 551.803 772.884 552.57 774.25 554.103C775.65 555.603 776.35 557.77 776.35 560.603V561.503C776.35 565.236 775.067 567.636 772.5 568.703C773.9 569.303 774.884 570.236 775.45 571.503C776.05 572.736 776.35 574.253 776.35 576.053V578.803C776.35 581.636 775.65 583.82 774.25 585.353C772.884 586.853 770.85 587.603 768.15 587.603C765.45 587.603 763.4 586.853 762 585.353C760.634 583.82 759.95 581.636 759.95 578.803V574.403H765.15V579.153C765.15 580.42 765.4 581.32 765.9 581.853C766.434 582.353 767.134 582.603 768 582.603C768.867 582.603 769.55 582.336 770.05 581.803C770.584 581.27 770.85 580.22 770.85 578.653V575.903C770.85 574.27 770.567 573.12 770 572.453C769.434 571.786 768.517 571.453 767.25 571.453H766.4V566.453H767.55C768.584 566.453 769.384 566.186 769.95 565.653C770.55 565.12 770.85 564.153 770.85 562.753V560.803ZM785.485 587.203H779.835V552.203H784.735V573.153L790.385 552.203H797.285V587.203H792.335V561.853L785.485 587.203ZM799.771 552.203H816.771V557.203H811.021V587.203H805.521V557.203H799.771V552.203ZM827.388 582.203C828.255 582.203 828.921 581.97 829.388 581.503C829.855 581.036 830.088 580.17 830.088 578.903V573.653C830.088 572.386 829.855 571.52 829.388 571.053C828.921 570.586 828.255 570.353 827.388 570.353H824.788V582.203H827.388ZM819.288 587.203V552.203H824.788V565.353H827.388C830.155 565.353 832.205 566.086 833.538 567.553C834.905 569.02 835.588 571.17 835.588 574.003V578.553C835.588 581.386 834.905 583.536 833.538 585.003C832.205 586.47 830.155 587.203 827.388 587.203H819.288ZM853.987 574.153V578.803C853.987 581.636 853.287 583.82 851.887 585.353C850.52 586.853 848.487 587.603 845.787 587.603C843.087 587.603 841.037 586.853 839.637 585.353C838.27 583.82 837.587 581.636 837.587 578.803V560.603C837.587 557.77 838.27 555.603 839.637 554.103C841.037 552.57 843.087 551.803 845.787 551.803C848.487 551.803 850.52 552.57 851.887 554.103C853.287 555.603 853.987 557.77 853.987 560.603V564.003H848.787V560.253C848.787 558.986 848.52 558.103 847.987 557.603C847.487 557.07 846.804 556.803 845.937 556.803C845.07 556.803 844.37 557.07 843.837 557.603C843.337 558.103 843.087 558.986 843.087 560.253V579.153C843.087 580.42 843.337 581.303 843.837 581.803C844.37 582.303 845.07 582.553 845.937 582.553C846.804 582.553 847.487 582.303 847.987 581.803C848.52 581.303 848.787 580.42 848.787 579.153V574.153H853.987ZM865.422 557.203C864.455 557.203 863.738 557.486 863.272 558.053C862.838 558.62 862.622 559.536 862.622 560.803V564.253C862.622 565.653 862.905 566.62 863.472 567.153C864.072 567.686 864.888 567.953 865.922 567.953H868.072V557.203H865.422ZM856.472 587.203C856.738 586.536 856.905 585.886 856.972 585.253C857.038 584.586 857.072 583.82 857.072 582.953V577.553C857.072 575.72 857.322 574.17 857.822 572.903C858.355 571.603 859.322 570.67 860.722 570.103C858.322 568.97 857.122 566.603 857.122 563.003V560.253C857.122 557.553 857.755 555.536 859.022 554.203C860.322 552.87 862.405 552.203 865.272 552.203H873.572V587.203H868.072V572.953H866.172C864.905 572.953 863.988 573.286 863.422 573.953C862.855 574.62 862.572 575.77 862.572 577.403V582.903C862.572 583.603 862.555 584.186 862.522 584.653C862.522 585.12 862.488 585.503 862.422 585.803C862.388 586.103 862.338 586.353 862.272 586.553C862.205 586.753 862.138 586.97 862.072 587.203H856.472ZM893.653 552.203C896.519 552.203 898.586 552.87 899.853 554.203C901.153 555.536 901.803 557.553 901.803 560.253V561.503C901.803 563.303 901.519 564.786 900.953 565.953C900.386 567.12 899.486 567.986 898.253 568.553C899.753 569.12 900.803 570.053 901.403 571.353C902.036 572.62 902.353 574.186 902.353 576.053V578.903C902.353 581.603 901.653 583.67 900.253 585.103C898.853 586.503 896.769 587.203 894.003 587.203H885.353V552.203H893.653ZM890.853 571.453V582.203H894.003C894.936 582.203 895.636 581.953 896.103 581.453C896.603 580.953 896.853 580.053 896.853 578.753V575.703C896.853 574.07 896.569 572.953 896.003 572.353C895.469 571.753 894.569 571.453 893.303 571.453H890.853ZM890.853 557.203V566.453H893.003C894.036 566.453 894.836 566.186 895.403 565.653C896.003 565.12 896.303 564.153 896.303 562.753V560.803C896.303 559.536 896.069 558.62 895.603 558.053C895.169 557.486 894.469 557.203 893.503 557.203H890.853ZM931.13 587.203H925.58L924.63 580.853H917.88L916.93 587.203H911.88L917.48 552.203H925.53L931.13 587.203ZM918.58 576.103H923.88L921.23 558.403L918.58 576.103ZM932.144 552.203H949.144V557.203H943.394V587.203H937.894V557.203H932.144V552.203ZM963.361 577.053L967.111 552.203H974.761V587.203H969.561V562.103L965.761 587.203H960.561L956.461 562.453V587.203H951.661V552.203H959.311L963.361 577.053ZM983.761 579.153C983.761 580.42 984.011 581.32 984.511 581.853C985.044 582.353 985.744 582.603 986.611 582.603C987.477 582.603 988.161 582.353 988.661 581.853C989.194 581.32 989.461 580.42 989.461 579.153V560.253C989.461 558.986 989.194 558.103 988.661 557.603C988.161 557.07 987.477 556.803 986.611 556.803C985.744 556.803 985.044 557.07 984.511 557.603C984.011 558.103 983.761 558.986 983.761 560.253V579.153ZM978.261 560.603C978.261 557.77 978.977 555.603 980.411 554.103C981.844 552.57 983.911 551.803 986.611 551.803C989.311 551.803 991.377 552.57 992.811 554.103C994.244 555.603 994.961 557.77 994.961 560.603V578.803C994.961 581.636 994.244 583.82 992.811 585.353C991.377 586.853 989.311 587.603 986.611 587.603C983.911 587.603 981.844 586.853 980.411 585.353C978.977 583.82 978.261 581.636 978.261 578.803V560.603ZM1014.34 574.153V578.803C1014.34 581.636 1013.64 583.82 1012.24 585.353C1010.87 586.853 1008.84 587.603 1006.14 587.603C1003.44 587.603 1001.39 586.853 999.988 585.353C998.622 583.82 997.938 581.636 997.938 578.803V560.603C997.938 557.77 998.622 555.603 999.988 554.103C1001.39 552.57 1003.44 551.803 1006.14 551.803C1008.84 551.803 1010.87 552.57 1012.24 554.103C1013.64 555.603 1014.34 557.77 1014.34 560.603V564.003H1009.14V560.253C1009.14 558.986 1008.87 558.103 1008.34 557.603C1007.84 557.07 1007.16 556.803 1006.29 556.803C1005.42 556.803 1004.72 557.07 1004.19 557.603C1003.69 558.103 1003.44 558.986 1003.44 560.253V579.153C1003.44 580.42 1003.69 581.303 1004.19 581.803C1004.72 582.303 1005.42 582.553 1006.29 582.553C1007.16 582.553 1007.84 582.303 1008.34 581.803C1008.87 581.303 1009.14 580.42 1009.14 579.153V574.153H1014.34ZM1027.37 581.053H1024.77C1022.01 581.053 1019.94 580.32 1018.57 578.853C1017.24 577.386 1016.57 575.236 1016.57 572.403V562.853C1016.57 560.02 1017.24 557.87 1018.57 556.403C1019.94 554.936 1022.01 554.203 1024.77 554.203H1027.37V552.203H1032.87V554.203H1035.47C1038.24 554.203 1040.29 554.936 1041.62 556.403C1042.99 557.87 1043.67 560.02 1043.67 562.853V572.403C1043.67 575.236 1042.99 577.386 1041.62 578.853C1040.29 580.32 1038.24 581.053 1035.47 581.053H1032.87V587.203H1027.37V581.053ZM1032.87 559.203V576.053H1035.47C1036.34 576.053 1037.01 575.82 1037.47 575.353C1037.94 574.886 1038.17 574.02 1038.17 572.753V562.503C1038.17 561.236 1037.94 560.37 1037.47 559.903C1037.01 559.436 1036.34 559.203 1035.47 559.203H1032.87ZM1024.77 559.203C1023.91 559.203 1023.24 559.436 1022.77 559.903C1022.31 560.37 1022.07 561.236 1022.07 562.503V572.753C1022.07 574.02 1022.31 574.886 1022.77 575.353C1023.24 575.82 1023.91 576.053 1024.77 576.053H1027.37V559.203H1024.77ZM1051.94 566.953H1059.49V571.953H1051.94V582.203H1061.44V587.203H1046.44V552.203H1061.44V557.203H1051.94V566.953ZM1072.8 552.203C1075.56 552.203 1077.61 552.936 1078.95 554.403C1080.31 555.87 1081 558.02 1081 560.853V565.403C1081 568.236 1080.31 570.386 1078.95 571.853C1077.61 573.32 1075.56 574.053 1072.8 574.053H1070.2V587.203H1064.7V552.203H1072.8ZM1070.2 557.203V569.053H1072.8C1073.66 569.053 1074.33 568.82 1074.8 568.353C1075.26 567.886 1075.5 567.02 1075.5 565.753V560.503C1075.5 559.236 1075.26 558.37 1074.8 557.903C1074.33 557.436 1073.66 557.203 1072.8 557.203H1070.2ZM1085 582.203C1085.3 582.236 1085.61 582.253 1085.95 582.253C1086.28 582.253 1086.6 582.253 1086.9 582.253C1087.33 582.253 1087.73 582.203 1088.1 582.103C1088.5 582.003 1088.83 581.82 1089.1 581.553C1089.4 581.286 1089.61 580.903 1089.75 580.403C1089.91 579.903 1090 579.27 1090 578.503L1082 552.203H1087.5L1093.55 572.703L1098.55 552.203H1104.05L1096.85 578.003C1096.21 580.403 1095.56 582.253 1094.9 583.553C1094.26 584.82 1093.58 585.736 1092.85 586.303C1092.11 586.836 1091.31 587.136 1090.45 587.203C1089.61 587.27 1088.68 587.303 1087.65 587.303C1087.15 587.303 1086.7 587.303 1086.3 587.303C1085.9 587.303 1085.46 587.27 1085 587.203V582.203ZM1112.81 552.203H1129.81V557.203H1124.06V587.203H1118.56V557.203H1112.81V552.203ZM1137.83 566.953H1145.38V571.953H1137.83V582.203H1147.33V587.203H1132.33V552.203H1147.33V557.203H1137.83V566.953ZM1168.34 587.203H1162.79L1161.84 580.853H1155.09L1154.14 587.203H1149.09L1154.69 552.203H1162.74L1168.34 587.203ZM1155.79 576.103H1161.09L1158.44 558.403L1155.79 576.103ZM1169.35 552.203H1186.35V557.203H1180.6V587.203H1175.1V557.203H1169.35V552.203ZM1196.97 552.203C1199.73 552.203 1201.78 552.936 1203.12 554.403C1204.48 555.87 1205.17 558.02 1205.17 560.853V565.403C1205.17 568.236 1204.48 570.386 1203.12 571.853C1201.78 573.32 1199.73 574.053 1196.97 574.053H1194.37V587.203H1188.87V552.203H1196.97ZM1194.37 557.203V569.053H1196.97C1197.83 569.053 1198.5 568.82 1198.97 568.353C1199.43 567.886 1199.67 567.02 1199.67 565.753V560.503C1199.67 559.236 1199.43 558.37 1198.97 557.903C1198.5 557.436 1197.83 557.203 1196.97 557.203H1194.37ZM1225.42 587.203H1219.87L1218.92 580.853H1212.17L1211.22 587.203H1206.17L1211.77 552.203H1219.82L1225.42 587.203ZM1212.87 576.103H1218.17L1215.52 558.403L1212.87 576.103ZM1231.93 579.453C1231.73 578.853 1231.63 578.136 1231.63 577.303C1231.63 576.036 1231.78 574.936 1232.08 574.003C1232.38 573.07 1232.75 572.22 1233.18 571.453C1233.61 570.653 1234.1 569.903 1234.63 569.203C1235.16 568.47 1235.65 567.686 1236.08 566.853C1236.51 566.02 1236.88 565.086 1237.18 564.053C1237.48 562.986 1237.63 561.72 1237.63 560.253C1237.63 558.986 1237.38 558.103 1236.88 557.603C1236.41 557.07 1235.75 556.803 1234.88 556.803C1234.01 556.803 1233.33 557.07 1232.83 557.603C1232.36 558.103 1232.13 558.986 1232.13 560.253V564.053H1226.93V560.603C1226.93 557.77 1227.6 555.603 1228.93 554.103C1230.3 552.57 1232.33 551.803 1235.03 551.803C1237.73 551.803 1239.75 552.57 1241.08 554.103C1242.45 555.603 1243.13 557.77 1243.13 560.603C1243.13 562.136 1242.96 563.47 1242.63 564.603C1242.33 565.703 1241.93 566.703 1241.43 567.603C1240.96 568.503 1240.45 569.336 1239.88 570.103C1239.31 570.836 1238.78 571.57 1238.28 572.303C1237.81 573.036 1237.41 573.82 1237.08 574.653C1236.78 575.486 1236.63 576.436 1236.63 577.503C1236.63 578.236 1236.7 578.886 1236.83 579.453H1231.93ZM1236.98 581.903V587.203H1231.68V581.903H1236.98Z" fill="black"/>
<path d="M70.6282 818.625V828.096C70.6282 833.866 69.2026 838.313 66.3513 841.435C63.568 844.49 59.4269 846.018 53.928 846.018C48.4292 846.018 44.2541 844.49 41.4029 841.435C38.6195 838.313 37.2278 833.866 37.2278 828.096V791.029C37.2278 785.259 38.6195 780.846 41.4029 777.791C44.2541 774.669 48.4292 773.107 53.928 773.107C59.4269 773.107 63.568 774.669 66.3513 777.791C69.2026 780.846 70.6282 785.259 70.6282 791.029V797.954H60.0378V790.316C60.0378 787.737 59.4947 785.938 58.4086 784.919C57.3902 783.833 55.9986 783.29 54.2335 783.29C52.4684 783.29 51.0428 783.833 49.9566 784.919C48.9383 785.938 48.4292 787.737 48.4292 790.316V828.808C48.4292 831.388 48.9383 833.187 49.9566 834.205C51.0428 835.224 52.4684 835.733 54.2335 835.733C55.9986 835.733 57.3902 835.224 58.4086 834.205C59.4947 833.187 60.0378 831.388 60.0378 828.808V818.625H70.6282ZM88.9267 835.02H101.655V773.922H113.06V835.02H118.763V853.35H107.358V845.203H77.7253V773.922H88.9267V835.02ZM134.074 803.962H149.451V814.145H134.074V835.02H153.422V845.203H122.873V773.922H153.422V784.105H134.074V803.962ZM171.266 845.203H160.065V773.922H171.266V804.471H183.995V773.922H195.4V845.203H183.995V814.654H171.266V845.203ZM239.672 845.203H228.368L226.434 832.271H212.687L210.752 845.203H200.467L211.872 773.922H228.267L239.672 845.203ZM214.112 822.597H224.906L219.509 786.549L214.112 822.597Z" fill="black"/>
<path d="M560.868 816.792L557.405 823.31V845.203H546.204V773.922H557.405V804.98L572.273 773.922H583.27L567.69 805.693L583.27 845.203H571.764L560.868 816.792ZM624.518 845.203H613.215L611.28 832.271H597.533L595.598 845.203H585.313L596.718 773.922H613.113L624.518 845.203ZM598.959 822.597H609.753L604.356 786.549L598.959 822.597ZM625.564 835.02C626.175 835.088 626.82 835.122 627.499 835.122C628.178 835.122 628.823 835.122 629.434 835.122C631.199 835.122 632.692 834.681 633.914 833.798C635.204 832.916 635.849 831.083 635.849 828.299V773.922H671.286V835.02H676.989V853.35H665.584V845.203H636.969V853.35H625.564V835.02ZM647.05 827.485C647.05 830.472 646.745 832.983 646.134 835.02H660.085V784.105H647.05V827.485ZM698.044 773.922C703.678 773.922 707.853 775.415 710.569 778.402C713.352 781.389 714.744 785.768 714.744 791.538V800.805C714.744 806.575 713.352 810.954 710.569 813.941C707.853 816.928 703.678 818.422 698.044 818.422H692.748V845.203H681.547V773.922H698.044ZM692.748 784.105V808.239H698.044C699.809 808.239 701.166 807.763 702.117 806.813C703.067 805.863 703.543 804.098 703.543 801.518V790.826C703.543 788.246 703.067 786.481 702.117 785.53C701.166 784.58 699.809 784.105 698.044 784.105H692.748Z" fill="black"/>
<path d="M1017.08 835.02C1017.69 835.088 1018.34 835.122 1019.02 835.122C1019.7 835.122 1020.34 835.122 1020.95 835.122C1022.72 835.122 1024.21 834.681 1025.43 833.798C1026.72 832.916 1027.37 831.083 1027.37 828.299V773.922H1062.8V835.02H1068.51V853.35H1057.1V845.203H1028.49V853.35H1017.08V835.02ZM1038.57 827.485C1038.57 830.472 1038.26 832.983 1037.65 835.02H1051.6V784.105H1038.57V827.485ZM1076.12 835.02C1076.73 835.088 1077.38 835.122 1078.05 835.122C1078.73 835.122 1079.38 835.122 1079.99 835.122C1080.87 835.122 1081.69 835.02 1082.43 834.816C1083.25 834.613 1083.93 834.239 1084.47 833.696C1085.08 833.153 1085.52 832.372 1085.79 831.354C1086.13 830.336 1086.3 829.046 1086.3 827.485L1070.01 773.922H1081.21L1093.53 815.672L1103.72 773.922H1114.92L1100.25 826.466C1098.96 831.354 1097.64 835.122 1096.28 837.769C1094.99 840.349 1093.6 842.216 1092.11 843.37C1090.61 844.456 1088.98 845.067 1087.22 845.203C1085.52 845.339 1083.62 845.407 1081.52 845.407C1080.5 845.407 1079.58 845.407 1078.77 845.407C1077.95 845.407 1077.07 845.339 1076.12 845.203V835.02ZM1131.2 800.703H1136.5C1142.13 800.703 1146.31 802.197 1149.02 805.184C1151.81 808.171 1153.2 812.549 1153.2 818.32V827.586C1153.2 833.357 1151.81 837.736 1149.02 840.723C1146.31 843.71 1142.13 845.203 1136.5 845.203H1120V773.922H1149.64V784.105H1131.2V800.703ZM1136.5 835.02C1138.26 835.02 1139.62 834.545 1140.57 833.594C1141.52 832.644 1142 830.879 1142 828.299V817.607C1142 815.027 1141.52 813.262 1140.57 812.312C1139.62 811.361 1138.26 810.886 1136.5 810.886H1131.2V835.02H1136.5ZM1191.25 784.105H1178.21V827.485C1178.21 831.083 1177.77 834.036 1176.89 836.344C1176.01 838.652 1174.82 840.485 1173.32 841.843C1171.83 843.133 1170.1 844.049 1168.13 844.592C1166.23 845.135 1164.23 845.407 1162.12 845.407C1161.1 845.407 1160.19 845.407 1159.37 845.407C1158.56 845.407 1157.68 845.339 1156.73 845.203V835.02C1157.34 835.088 1157.98 835.122 1158.66 835.122C1159.34 835.122 1159.98 835.122 1160.59 835.122C1162.36 835.122 1163.85 834.681 1165.08 833.798C1166.37 832.916 1167.01 831.083 1167.01 828.299V773.922H1202.45V845.203H1191.25V784.105ZM1227.09 835.02C1228.86 835.02 1230.22 834.545 1231.17 833.594C1232.12 832.644 1232.59 830.879 1232.59 828.299V817.607C1232.59 815.027 1232.12 813.262 1231.17 812.312C1230.22 811.361 1228.86 810.886 1227.09 810.886H1221.8V835.02H1227.09ZM1210.6 845.203V773.922H1221.8V800.703H1227.09C1232.73 800.703 1236.9 802.197 1239.62 805.184C1242.4 808.171 1243.79 812.549 1243.79 818.32V827.586C1243.79 833.357 1242.4 837.736 1239.62 840.723C1236.9 843.71 1232.73 845.203 1227.09 845.203H1210.6Z" fill="black"/>
<path d="M121.514 910.372C122.798 910.372 123.841 910.232 124.644 909.951C125.486 909.67 126.168 909.289 126.69 908.807C127.212 908.326 127.633 907.764 127.954 907.122C128.275 906.48 128.556 905.798 128.796 905.076H133.25V947.203H126.63V915.066H121.514V910.372Z" fill="black"/>
<path d="M620.514 910.372C621.798 910.372 622.841 910.232 623.644 909.951C624.486 909.67 625.168 909.289 625.69 908.807C626.212 908.326 626.633 907.764 626.954 907.122C627.275 906.48 627.556 905.798 627.796 905.076H632.25V947.203H625.63V915.066H620.514V910.372Z" fill="black"/>
<path d="M1119.51 910.372C1120.8 910.372 1121.84 910.232 1122.64 909.951C1123.49 909.67 1124.17 909.289 1124.69 908.807C1125.21 908.326 1125.63 907.764 1125.95 907.122C1126.27 906.48 1126.56 905.798 1126.8 905.076H1131.25V947.203H1124.63V915.066H1119.51V910.372Z" fill="black"/>
<path d="M48.5807 1152.81C48.5807 1155.39 49.0898 1157.22 50.1081 1158.31C51.1943 1159.33 52.6199 1159.83 54.385 1159.83C56.1501 1159.83 57.5417 1159.33 58.56 1158.31C59.6462 1157.22 60.1893 1155.39 60.1893 1152.81V1114.32C60.1893 1111.74 59.6462 1109.94 58.56 1108.92C57.5417 1107.83 56.1501 1107.29 54.385 1107.29C52.6199 1107.29 51.1943 1107.83 50.1081 1108.92C49.0898 1109.94 48.5807 1111.74 48.5807 1114.32V1152.81ZM37.3793 1115.03C37.3793 1109.26 38.8389 1104.85 41.758 1101.79C44.6772 1098.67 48.8861 1097.11 54.385 1097.11C59.8838 1097.11 64.0928 1098.67 67.012 1101.79C69.9311 1104.85 71.3907 1109.26 71.3907 1115.03V1152.1C71.3907 1157.87 69.9311 1162.31 67.012 1165.44C64.0928 1168.49 59.8838 1170.02 54.385 1170.02C48.8861 1170.02 44.6772 1168.49 41.758 1165.44C38.8389 1162.31 37.3793 1157.87 37.3793 1152.1V1115.03ZM89.6748 1169.2H78.4735V1097.92H113.809V1169.2H102.404V1108.1H89.6748V1169.2ZM133.437 1169.2H121.93V1097.92H131.91V1140.59L143.417 1097.92H157.469V1169.2H147.388V1117.58L133.437 1169.2ZM197.968 1142.63V1152.1C197.968 1157.87 196.543 1162.31 193.691 1165.44C190.908 1168.49 186.767 1170.02 181.268 1170.02C175.769 1170.02 171.594 1168.49 168.743 1165.44C165.96 1162.31 164.568 1157.87 164.568 1152.1V1115.03C164.568 1109.26 165.96 1104.85 168.743 1101.79C171.594 1098.67 175.769 1097.11 181.268 1097.11C186.767 1097.11 190.908 1098.67 193.691 1101.79C196.543 1104.85 197.968 1109.26 197.968 1115.03V1121.95H187.378V1114.32C187.378 1111.74 186.835 1109.94 185.749 1108.92C184.73 1107.83 183.339 1107.29 181.574 1107.29C179.809 1107.29 178.383 1107.83 177.297 1108.92C176.278 1109.94 175.769 1111.74 175.769 1114.32V1152.81C175.769 1155.39 176.278 1157.19 177.297 1158.21C178.383 1159.22 179.809 1159.73 181.574 1159.73C183.339 1159.73 184.73 1159.22 185.749 1158.21C186.835 1157.19 187.378 1155.39 187.378 1152.81V1142.63H197.968ZM241.215 1169.2H229.912L227.977 1156.27H214.23L212.295 1169.2H202.011L213.416 1097.92H229.81L241.215 1169.2ZM215.656 1146.6H226.45L221.053 1110.55L215.656 1146.6ZM257.536 1169.2H246.335V1097.92H257.536V1128.47H270.265V1097.92H281.67V1169.2H270.265V1138.65H257.536V1169.2ZM301.298 1169.2H289.792V1097.92H299.771V1140.59L311.278 1097.92H325.33V1169.2H315.249V1117.58L301.298 1169.2ZM344.649 1127.96H360.025V1138.14H344.649V1159.02H363.997V1169.2H333.447V1097.92H363.997V1108.1H344.649V1127.96Z" fill="black"/>
<path d="M591.305 1125.2V1102.36H603.414V1125.2H600.93V1104.61H593.789V1125.2H591.305ZM618.461 1116.61C618.461 1117.96 618.346 1119.19 618.117 1120.28C617.888 1121.38 617.539 1122.31 617.07 1123.09C616.602 1123.88 616.008 1124.47 615.289 1124.89C614.57 1125.31 613.721 1125.52 612.742 1125.52C611.805 1125.52 610.982 1125.31 610.273 1124.89C609.565 1124.47 608.977 1123.88 608.508 1123.11C608.039 1122.33 607.685 1121.39 607.445 1120.3C607.206 1119.19 607.086 1117.96 607.086 1116.61C607.086 1114.71 607.289 1113.11 607.695 1111.8C608.102 1110.47 608.727 1109.47 609.57 1108.78C610.414 1108.08 611.487 1107.73 612.789 1107.73C614.008 1107.73 615.039 1108.07 615.883 1108.75C616.727 1109.42 617.367 1110.41 617.805 1111.73C618.242 1113.05 618.461 1114.67 618.461 1116.61ZM609.539 1116.61C609.539 1118.1 609.654 1119.35 609.883 1120.36C610.112 1121.37 610.466 1122.13 610.945 1122.64C611.435 1123.15 612.055 1123.41 612.805 1123.41C613.544 1123.41 614.148 1123.16 614.617 1122.66C615.096 1122.16 615.451 1121.41 615.68 1120.41C615.909 1119.4 616.023 1118.13 616.023 1116.61C616.023 1115.12 615.909 1113.88 615.68 1112.88C615.451 1111.86 615.096 1111.11 614.617 1110.61C614.148 1110.1 613.539 1109.84 612.789 1109.84C611.643 1109.84 610.815 1110.41 610.305 1111.55C609.794 1112.67 609.539 1114.36 609.539 1116.61ZM626.867 1125.52C625.607 1125.52 624.555 1125.19 623.711 1124.53C622.878 1123.88 622.253 1122.9 621.836 1121.59C621.419 1120.29 621.211 1118.68 621.211 1116.75C621.211 1114.86 621.419 1113.25 621.836 1111.91C622.263 1110.56 622.904 1109.53 623.758 1108.81C624.612 1108.09 625.68 1107.73 626.961 1107.73C627.607 1107.73 628.185 1107.8 628.695 1107.94C629.216 1108.07 629.701 1108.27 630.148 1108.52L629.383 1110.5C628.997 1110.29 628.612 1110.14 628.227 1110.03C627.852 1109.93 627.482 1109.88 627.117 1109.88C626.367 1109.88 625.737 1110.14 625.227 1110.66C624.716 1111.17 624.326 1111.93 624.055 1112.94C623.794 1113.95 623.664 1115.21 623.664 1116.72C623.664 1118.19 623.789 1119.42 624.039 1120.41C624.299 1121.4 624.685 1122.15 625.195 1122.66C625.716 1123.16 626.362 1123.41 627.133 1123.41C627.591 1123.41 628.055 1123.34 628.523 1123.22C629.003 1123.08 629.482 1122.89 629.961 1122.64V1124.67C629.523 1124.94 629.013 1125.15 628.43 1125.3C627.857 1125.44 627.336 1125.52 626.867 1125.52ZM637.633 1107.77C638.799 1107.77 639.758 1108.1 640.508 1108.78C641.268 1109.46 641.831 1110.37 642.195 1111.52C642.57 1112.66 642.758 1113.94 642.758 1115.34V1117.05H634.586C634.607 1119.18 634.935 1120.79 635.57 1121.86C636.216 1122.93 637.185 1123.47 638.477 1123.47C639.091 1123.47 639.695 1123.38 640.289 1123.19C640.883 1123 641.497 1122.7 642.133 1122.28V1124.44C641.539 1124.8 640.919 1125.07 640.273 1125.25C639.628 1125.43 638.94 1125.52 638.211 1125.52C636.784 1125.52 635.628 1125.14 634.742 1124.38C633.857 1123.6 633.211 1122.56 632.805 1121.23C632.409 1119.9 632.211 1118.4 632.211 1116.72C632.211 1114.8 632.414 1113.18 632.82 1111.84C633.227 1110.51 633.831 1109.5 634.633 1108.81C635.445 1108.11 636.445 1107.77 637.633 1107.77ZM637.633 1109.73C636.727 1109.73 636.018 1110.18 635.508 1111.06C634.997 1111.94 634.701 1113.29 634.617 1115.12H640.508C640.508 1114.16 640.404 1113.27 640.195 1112.45C639.997 1111.63 639.685 1110.97 639.258 1110.48C638.841 1109.98 638.299 1109.73 637.633 1109.73ZM653.352 1110.14H650.07V1125.2H647.695V1110.14H644.383V1108.05H653.352V1110.14ZM658.117 1108.05V1118.02C658.117 1118.33 658.112 1118.64 658.102 1118.94C658.102 1119.24 658.091 1119.54 658.07 1119.84C658.06 1120.15 658.044 1120.46 658.023 1120.78C658.003 1121.09 657.982 1121.42 657.961 1121.77L663.711 1108.05H666.461V1125.2H664.148V1115.53C664.148 1115.08 664.148 1114.64 664.148 1114.19C664.159 1113.74 664.174 1113.29 664.195 1112.84C664.216 1112.4 664.237 1111.95 664.258 1111.5L658.477 1125.2H655.758V1108.05H658.117ZM681.555 1125.52C680.294 1125.52 679.242 1125.19 678.398 1124.53C677.565 1123.88 676.94 1122.9 676.523 1121.59C676.107 1120.29 675.898 1118.68 675.898 1116.75C675.898 1114.86 676.107 1113.25 676.523 1111.91C676.951 1110.56 677.591 1109.53 678.445 1108.81C679.299 1108.09 680.367 1107.73 681.648 1107.73C682.294 1107.73 682.872 1107.8 683.383 1107.94C683.904 1108.07 684.388 1108.27 684.836 1108.52L684.07 1110.5C683.685 1110.29 683.299 1110.14 682.914 1110.03C682.539 1109.93 682.169 1109.88 681.805 1109.88C681.055 1109.88 680.424 1110.14 679.914 1110.66C679.404 1111.17 679.013 1111.93 678.742 1112.94C678.482 1113.95 678.352 1115.21 678.352 1116.72C678.352 1118.19 678.477 1119.42 678.727 1120.41C678.987 1121.4 679.372 1122.15 679.883 1122.66C680.404 1123.16 681.049 1123.41 681.82 1123.41C682.279 1123.41 682.742 1123.34 683.211 1123.22C683.69 1123.08 684.169 1122.89 684.648 1122.64V1124.67C684.211 1124.94 683.701 1125.15 683.117 1125.3C682.544 1125.44 682.023 1125.52 681.555 1125.52ZM697.977 1108.05V1125.2H695.57V1110.14H690.008V1125.2H687.602V1108.05H697.977ZM706.883 1107.77C708.049 1107.77 709.008 1108.1 709.758 1108.78C710.518 1109.46 711.081 1110.37 711.445 1111.52C711.82 1112.66 712.008 1113.94 712.008 1115.34V1117.05H703.836C703.857 1119.18 704.185 1120.79 704.82 1121.86C705.466 1122.93 706.435 1123.47 707.727 1123.47C708.341 1123.47 708.945 1123.38 709.539 1123.19C710.133 1123 710.747 1122.7 711.383 1122.28V1124.44C710.789 1124.8 710.169 1125.07 709.523 1125.25C708.878 1125.43 708.19 1125.52 707.461 1125.52C706.034 1125.52 704.878 1125.14 703.992 1124.38C703.107 1123.6 702.461 1122.56 702.055 1121.23C701.659 1119.9 701.461 1118.4 701.461 1116.72C701.461 1114.8 701.664 1113.18 702.07 1111.84C702.477 1110.51 703.081 1109.5 703.883 1108.81C704.695 1108.11 705.695 1107.77 706.883 1107.77ZM706.883 1109.73C705.977 1109.73 705.268 1110.18 704.758 1111.06C704.247 1111.94 703.951 1113.29 703.867 1115.12H709.758C709.758 1114.16 709.654 1113.27 709.445 1112.45C709.247 1111.63 708.935 1110.97 708.508 1110.48C708.091 1109.98 707.549 1109.73 706.883 1109.73ZM722.492 1108.05H725.133L720.195 1116.14L725.523 1125.2H722.805L717.82 1116.3V1125.2H715.414V1108.05H717.82V1116.16L722.492 1108.05ZM734.914 1110.14H731.633V1125.2H729.258V1110.14H725.945V1108.05H734.914V1110.14ZM741.914 1107.73C743.497 1107.73 744.628 1108.24 745.305 1109.25C745.982 1110.26 746.32 1111.72 746.32 1113.64V1125.2H744.492L744.133 1122.77H744.07C743.799 1123.35 743.477 1123.85 743.102 1124.27C742.727 1124.67 742.299 1124.98 741.82 1125.2C741.341 1125.41 740.789 1125.52 740.164 1125.52C739.279 1125.52 738.555 1125.28 737.992 1124.81C737.43 1124.34 737.013 1123.73 736.742 1122.97C736.471 1122.2 736.336 1121.37 736.336 1120.48C736.336 1118.79 736.826 1117.47 737.805 1116.53C738.784 1115.59 740.174 1115.08 741.977 1115L743.93 1114.88V1113.7C743.93 1112.33 743.742 1111.32 743.367 1110.69C742.992 1110.05 742.388 1109.73 741.555 1109.73C741.076 1109.73 740.57 1109.82 740.039 1109.98C739.518 1110.15 738.951 1110.42 738.336 1110.78L737.57 1108.97C738.216 1108.55 738.904 1108.24 739.633 1108.05C740.372 1107.84 741.133 1107.73 741.914 1107.73ZM743.961 1116.64L742.367 1116.75C741.159 1116.82 740.258 1117.17 739.664 1117.78C739.081 1118.39 738.789 1119.27 738.789 1120.42C738.789 1121.49 738.982 1122.29 739.367 1122.8C739.753 1123.31 740.284 1123.56 740.961 1123.56C741.909 1123.56 742.643 1123.1 743.164 1122.19C743.695 1121.27 743.961 1120.01 743.961 1118.39V1116.64ZM757.555 1108.05H760.195L755.258 1116.14L760.586 1125.2H757.867L752.883 1116.3V1125.2H750.477V1108.05H752.883V1116.16L757.555 1108.05ZM772.039 1125.2H769.648V1110.22H766.367C766.242 1112.79 766.086 1115.03 765.898 1116.94C765.711 1118.84 765.451 1120.42 765.117 1121.67C764.794 1122.92 764.367 1123.85 763.836 1124.47C763.305 1125.08 762.633 1125.39 761.82 1125.39C761.612 1125.39 761.414 1125.38 761.227 1125.34C761.039 1125.31 760.857 1125.26 760.68 1125.19V1123.11C760.763 1123.15 760.862 1123.19 760.977 1123.22C761.102 1123.24 761.232 1123.25 761.367 1123.25C761.721 1123.25 762.029 1123.05 762.289 1122.66C762.56 1122.25 762.794 1121.64 762.992 1120.83C763.201 1120.02 763.378 1119.01 763.523 1117.8C763.669 1116.58 763.789 1115.16 763.883 1113.53C763.987 1111.91 764.076 1110.08 764.148 1108.05H772.039V1125.2ZM778.664 1115.22H780.477C781.695 1115.22 782.716 1115.41 783.539 1115.78C784.362 1116.16 784.982 1116.71 785.398 1117.44C785.826 1118.17 786.039 1119.07 786.039 1120.16C786.039 1121.25 785.826 1122.17 785.398 1122.92C784.982 1123.67 784.367 1124.24 783.555 1124.62C782.742 1125.01 781.747 1125.2 780.57 1125.2H776.258V1108.05H778.664V1115.22ZM783.633 1120.27C783.633 1119.24 783.378 1118.47 782.867 1117.95C782.357 1117.42 781.576 1117.16 780.523 1117.16H778.664V1123.27H780.508C781.549 1123.27 782.331 1123.01 782.852 1122.5C783.372 1121.99 783.633 1121.24 783.633 1120.27ZM794.242 1116.48L798.836 1110.34L800.523 1111.2L797.07 1116.7L800.523 1122.14L798.836 1123.06L794.242 1116.94V1116.48ZM800.227 1116.48L804.852 1110.34L806.492 1111.2L803.07 1116.7L806.508 1122.14L804.852 1123.06L800.227 1116.94V1116.48ZM820.102 1108.05V1125.2H817.695V1110.14H812.133V1125.2H809.727V1108.05H820.102ZM830.492 1107.73C832.138 1107.73 833.383 1108.47 834.227 1109.95C835.081 1111.42 835.508 1113.64 835.508 1116.59C835.508 1118.5 835.315 1120.12 834.93 1121.45C834.555 1122.78 834.003 1123.79 833.273 1124.48C832.544 1125.17 831.659 1125.52 830.617 1125.52C830.034 1125.52 829.492 1125.41 828.992 1125.19C828.492 1124.96 828.049 1124.64 827.664 1124.23C827.279 1123.82 826.956 1123.33 826.695 1122.78H826.586C826.607 1123.2 826.628 1123.6 826.648 1123.98C826.68 1124.37 826.695 1124.73 826.695 1125.08V1132.86H824.289V1108.05H826.242L826.539 1110.56H826.68C826.971 1109.93 827.305 1109.4 827.68 1108.98C828.065 1108.57 828.492 1108.26 828.961 1108.05C829.43 1107.84 829.94 1107.73 830.492 1107.73ZM829.977 1109.81C829.247 1109.81 828.638 1110.04 828.148 1110.5C827.669 1110.96 827.305 1111.65 827.055 1112.58C826.815 1113.49 826.695 1114.65 826.695 1116.05V1116.88C826.695 1118.35 826.815 1119.58 827.055 1120.55C827.305 1121.52 827.674 1122.23 828.164 1122.7C828.664 1123.17 829.279 1123.41 830.008 1123.41C830.674 1123.41 831.232 1123.17 831.68 1122.69C832.138 1122.21 832.482 1121.47 832.711 1120.47C832.94 1119.47 833.055 1118.19 833.055 1116.62C833.055 1114.36 832.815 1112.67 832.336 1111.53C831.867 1110.39 831.081 1109.81 829.977 1109.81ZM843.664 1107.77C844.831 1107.77 845.789 1108.1 846.539 1108.78C847.299 1109.46 847.862 1110.37 848.227 1111.52C848.602 1112.66 848.789 1113.94 848.789 1115.34V1117.05H840.617C840.638 1119.18 840.966 1120.79 841.602 1121.86C842.247 1122.93 843.216 1123.47 844.508 1123.47C845.122 1123.47 845.727 1123.38 846.32 1123.19C846.914 1123 847.529 1122.7 848.164 1122.28V1124.44C847.57 1124.8 846.951 1125.07 846.305 1125.25C845.659 1125.43 844.971 1125.52 844.242 1125.52C842.815 1125.52 841.659 1125.14 840.773 1124.38C839.888 1123.6 839.242 1122.56 838.836 1121.23C838.44 1119.9 838.242 1118.4 838.242 1116.72C838.242 1114.8 838.445 1113.18 838.852 1111.84C839.258 1110.51 839.862 1109.5 840.664 1108.81C841.477 1108.11 842.477 1107.77 843.664 1107.77ZM843.664 1109.73C842.758 1109.73 842.049 1110.18 841.539 1111.06C841.029 1111.94 840.732 1113.29 840.648 1115.12H846.539C846.539 1114.16 846.435 1113.27 846.227 1112.45C846.029 1111.63 845.716 1110.97 845.289 1110.48C844.872 1109.98 844.331 1109.73 843.664 1109.73ZM862.836 1116.61C862.836 1117.96 862.721 1119.19 862.492 1120.28C862.263 1121.38 861.914 1122.31 861.445 1123.09C860.977 1123.88 860.383 1124.47 859.664 1124.89C858.945 1125.31 858.096 1125.52 857.117 1125.52C856.18 1125.52 855.357 1125.31 854.648 1124.89C853.94 1124.47 853.352 1123.88 852.883 1123.11C852.414 1122.33 852.06 1121.39 851.82 1120.3C851.581 1119.19 851.461 1117.96 851.461 1116.61C851.461 1114.71 851.664 1113.11 852.07 1111.8C852.477 1110.47 853.102 1109.47 853.945 1108.78C854.789 1108.08 855.862 1107.73 857.164 1107.73C858.383 1107.73 859.414 1108.07 860.258 1108.75C861.102 1109.42 861.742 1110.41 862.18 1111.73C862.617 1113.05 862.836 1114.67 862.836 1116.61ZM853.914 1116.61C853.914 1118.1 854.029 1119.35 854.258 1120.36C854.487 1121.37 854.841 1122.13 855.32 1122.64C855.81 1123.15 856.43 1123.41 857.18 1123.41C857.919 1123.41 858.523 1123.16 858.992 1122.66C859.471 1122.16 859.826 1121.41 860.055 1120.41C860.284 1119.4 860.398 1118.13 860.398 1116.61C860.398 1115.12 860.284 1113.88 860.055 1112.88C859.826 1111.86 859.471 1111.11 858.992 1110.61C858.523 1110.1 857.914 1109.84 857.164 1109.84C856.018 1109.84 855.19 1110.41 854.68 1111.55C854.169 1112.67 853.914 1114.36 853.914 1116.61ZM865.68 1114.27C865.68 1112.39 865.805 1110.68 866.055 1109.12C866.315 1107.56 866.779 1106.2 867.445 1105.05C868.112 1103.89 869.07 1102.99 870.32 1102.34C870.977 1101.96 871.831 1101.62 872.883 1101.34C873.935 1101.06 875.185 1100.85 876.633 1100.72L876.898 1102.89C876.409 1102.93 875.893 1102.99 875.352 1103.06C874.81 1103.14 874.279 1103.22 873.758 1103.33C873.237 1103.43 872.753 1103.56 872.305 1103.7C871.857 1103.85 871.482 1104.01 871.18 1104.19C870.398 1104.62 869.794 1105.21 869.367 1105.94C868.94 1106.67 868.633 1107.53 868.445 1108.53C868.268 1109.52 868.154 1110.64 868.102 1111.89H868.242C868.492 1111.36 868.81 1110.9 869.195 1110.52C869.581 1110.13 870.013 1109.83 870.492 1109.62C870.982 1109.42 871.487 1109.31 872.008 1109.31C873.081 1109.31 873.992 1109.61 874.742 1110.22C875.492 1110.82 876.065 1111.71 876.461 1112.89C876.867 1114.06 877.07 1115.49 877.07 1117.19C877.07 1118.95 876.846 1120.45 876.398 1121.7C875.951 1122.94 875.289 1123.89 874.414 1124.55C873.549 1125.19 872.482 1125.52 871.211 1125.52C870.294 1125.52 869.487 1125.3 868.789 1124.86C868.102 1124.41 867.523 1123.73 867.055 1122.81C866.596 1121.9 866.253 1120.73 866.023 1119.31C865.794 1117.9 865.68 1116.21 865.68 1114.27ZM871.273 1123.44C872.013 1123.44 872.633 1123.21 873.133 1122.77C873.633 1122.31 874.008 1121.62 874.258 1120.72C874.508 1119.81 874.633 1118.68 874.633 1117.33C874.633 1115.37 874.367 1113.89 873.836 1112.88C873.315 1111.86 872.513 1111.36 871.43 1111.36C870.93 1111.36 870.456 1111.52 870.008 1111.83C869.57 1112.14 869.19 1112.54 868.867 1113.03C868.544 1113.52 868.305 1114.04 868.148 1114.58C868.159 1116.03 868.227 1117.3 868.352 1118.41C868.477 1119.51 868.664 1120.44 868.914 1121.19C869.174 1121.94 869.497 1122.5 869.883 1122.88C870.268 1123.25 870.732 1123.44 871.273 1123.44ZM886.742 1107.73C888.388 1107.73 889.633 1108.47 890.477 1109.95C891.331 1111.42 891.758 1113.64 891.758 1116.59C891.758 1118.5 891.565 1120.12 891.18 1121.45C890.805 1122.78 890.253 1123.79 889.523 1124.48C888.794 1125.17 887.909 1125.52 886.867 1125.52C886.284 1125.52 885.742 1125.41 885.242 1125.19C884.742 1124.96 884.299 1124.64 883.914 1124.23C883.529 1123.82 883.206 1123.33 882.945 1122.78H882.836C882.857 1123.2 882.878 1123.6 882.898 1123.98C882.93 1124.37 882.945 1124.73 882.945 1125.08V1132.86H880.539V1108.05H882.492L882.789 1110.56H882.93C883.221 1109.93 883.555 1109.4 883.93 1108.98C884.315 1108.57 884.742 1108.26 885.211 1108.05C885.68 1107.84 886.19 1107.73 886.742 1107.73ZM886.227 1109.81C885.497 1109.81 884.888 1110.04 884.398 1110.5C883.919 1110.96 883.555 1111.65 883.305 1112.58C883.065 1113.49 882.945 1114.65 882.945 1116.05V1116.88C882.945 1118.35 883.065 1119.58 883.305 1120.55C883.555 1121.52 883.924 1122.23 884.414 1122.7C884.914 1123.17 885.529 1123.41 886.258 1123.41C886.924 1123.41 887.482 1123.17 887.93 1122.69C888.388 1122.21 888.732 1121.47 888.961 1120.47C889.19 1119.47 889.305 1118.19 889.305 1116.62C889.305 1114.36 889.065 1112.67 888.586 1111.53C888.117 1110.39 887.331 1109.81 886.227 1109.81ZM899.789 1107.73C901.372 1107.73 902.503 1108.24 903.18 1109.25C903.857 1110.26 904.195 1111.72 904.195 1113.64V1125.2H902.367L902.008 1122.77H901.945C901.674 1123.35 901.352 1123.85 900.977 1124.27C900.602 1124.67 900.174 1124.98 899.695 1125.2C899.216 1125.41 898.664 1125.52 898.039 1125.52C897.154 1125.52 896.43 1125.28 895.867 1124.81C895.305 1124.34 894.888 1123.73 894.617 1122.97C894.346 1122.2 894.211 1121.37 894.211 1120.48C894.211 1118.79 894.701 1117.47 895.68 1116.53C896.659 1115.59 898.049 1115.08 899.852 1115L901.805 1114.88V1113.7C901.805 1112.33 901.617 1111.32 901.242 1110.69C900.867 1110.05 900.263 1109.73 899.43 1109.73C898.951 1109.73 898.445 1109.82 897.914 1109.98C897.393 1110.15 896.826 1110.42 896.211 1110.78L895.445 1108.97C896.091 1108.55 896.779 1108.24 897.508 1108.05C898.247 1107.84 899.008 1107.73 899.789 1107.73ZM901.836 1116.64L900.242 1116.75C899.034 1116.82 898.133 1117.17 897.539 1117.78C896.956 1118.39 896.664 1119.27 896.664 1120.42C896.664 1121.49 896.857 1122.29 897.242 1122.8C897.628 1123.31 898.159 1123.56 898.836 1123.56C899.784 1123.56 900.518 1123.1 901.039 1122.19C901.57 1121.27 901.836 1120.01 901.836 1118.39V1116.64ZM923.289 1108.05L918.586 1116.16L923.711 1125.2H920.977L916.227 1116.31V1125.2H913.852V1116.31L909.102 1125.2H906.383L911.508 1116.16L906.805 1108.05H909.414L913.852 1116.19V1108.05H916.227V1116.19L920.68 1108.05H923.289ZM930.602 1107.77C931.768 1107.77 932.727 1108.1 933.477 1108.78C934.237 1109.46 934.799 1110.37 935.164 1111.52C935.539 1112.66 935.727 1113.94 935.727 1115.34V1117.05H927.555C927.576 1119.18 927.904 1120.79 928.539 1121.86C929.185 1122.93 930.154 1123.47 931.445 1123.47C932.06 1123.47 932.664 1123.38 933.258 1123.19C933.852 1123 934.466 1122.7 935.102 1122.28V1124.44C934.508 1124.8 933.888 1125.07 933.242 1125.25C932.596 1125.43 931.909 1125.52 931.18 1125.52C929.753 1125.52 928.596 1125.14 927.711 1124.38C926.826 1123.6 926.18 1122.56 925.773 1121.23C925.378 1119.9 925.18 1118.4 925.18 1116.72C925.18 1114.8 925.383 1113.18 925.789 1111.84C926.195 1110.51 926.799 1109.5 927.602 1108.81C928.414 1108.11 929.414 1107.77 930.602 1107.77ZM930.602 1109.73C929.695 1109.73 928.987 1110.18 928.477 1111.06C927.966 1111.94 927.669 1113.29 927.586 1115.12H933.477C933.477 1114.16 933.372 1113.27 933.164 1112.45C932.966 1111.63 932.654 1110.97 932.227 1110.48C931.81 1109.98 931.268 1109.73 930.602 1109.73ZM941.539 1108.05V1115.25H947.102V1108.05H949.508V1125.2H947.102V1117.33H941.539V1125.2H939.133V1108.05H941.539ZM956.055 1108.05V1118.02C956.055 1118.33 956.049 1118.64 956.039 1118.94C956.039 1119.24 956.029 1119.54 956.008 1119.84C955.997 1120.15 955.982 1120.46 955.961 1120.78C955.94 1121.09 955.919 1121.42 955.898 1121.77L961.648 1108.05H964.398V1125.2H962.086V1115.53C962.086 1115.08 962.086 1114.64 962.086 1114.19C962.096 1113.74 962.112 1113.29 962.133 1112.84C962.154 1112.4 962.174 1111.95 962.195 1111.5L956.414 1125.2H953.695V1108.05H956.055ZM973.32 1107.77C974.487 1107.77 975.445 1108.1 976.195 1108.78C976.956 1109.46 977.518 1110.37 977.883 1111.52C978.258 1112.66 978.445 1113.94 978.445 1115.34V1117.05H970.273C970.294 1119.18 970.622 1120.79 971.258 1121.86C971.904 1122.93 972.872 1123.47 974.164 1123.47C974.779 1123.47 975.383 1123.38 975.977 1123.19C976.57 1123 977.185 1122.7 977.82 1122.28V1124.44C977.227 1124.8 976.607 1125.07 975.961 1125.25C975.315 1125.43 974.628 1125.52 973.898 1125.52C972.471 1125.52 971.315 1125.14 970.43 1124.38C969.544 1123.6 968.898 1122.56 968.492 1121.23C968.096 1119.9 967.898 1118.4 967.898 1116.72C967.898 1114.8 968.102 1113.18 968.508 1111.84C968.914 1110.51 969.518 1109.5 970.32 1108.81C971.133 1108.11 972.133 1107.77 973.32 1107.77ZM973.32 1109.73C972.414 1109.73 971.706 1110.18 971.195 1111.06C970.685 1111.94 970.388 1113.29 970.305 1115.12H976.195C976.195 1114.16 976.091 1113.27 975.883 1112.45C975.685 1111.63 975.372 1110.97 974.945 1110.48C974.529 1109.98 973.987 1109.73 973.32 1109.73ZM993.148 1116.94L988.523 1123.06L986.867 1122.14L990.289 1116.7L986.867 1111.2L988.523 1110.34L993.148 1116.48V1116.94ZM987.211 1116.94L982.555 1123.06L980.93 1122.14L984.32 1116.7L980.93 1111.2L982.555 1110.34L987.211 1116.48V1116.94ZM999.43 1121.61L999.633 1121.95C999.435 1122.82 999.216 1123.68 998.977 1124.53C998.737 1125.39 998.477 1126.22 998.195 1127.03C997.914 1127.85 997.602 1128.65 997.258 1129.41H995.414C995.654 1128.53 995.867 1127.64 996.055 1126.73C996.253 1125.83 996.419 1124.94 996.555 1124.06C996.701 1123.19 996.81 1122.37 996.883 1121.61H999.43ZM1019.73 1108.05V1125.2H1017.32V1110.14H1011.76V1125.2H1009.35V1108.05H1019.73ZM1034.55 1116.61C1034.55 1117.96 1034.44 1119.19 1034.21 1120.28C1033.98 1121.38 1033.63 1122.31 1033.16 1123.09C1032.7 1123.88 1032.1 1124.47 1031.38 1124.89C1030.66 1125.31 1029.82 1125.52 1028.84 1125.52C1027.9 1125.52 1027.08 1125.31 1026.37 1124.89C1025.66 1124.47 1025.07 1123.88 1024.6 1123.11C1024.13 1122.33 1023.78 1121.39 1023.54 1120.3C1023.3 1119.19 1023.18 1117.96 1023.18 1116.61C1023.18 1114.71 1023.38 1113.11 1023.79 1111.8C1024.2 1110.47 1024.82 1109.47 1025.66 1108.78C1026.51 1108.08 1027.58 1107.73 1028.88 1107.73C1030.1 1107.73 1031.13 1108.07 1031.98 1108.75C1032.82 1109.42 1033.46 1110.41 1033.9 1111.73C1034.34 1113.05 1034.55 1114.67 1034.55 1116.61ZM1025.63 1116.61C1025.63 1118.1 1025.75 1119.35 1025.98 1120.36C1026.21 1121.37 1026.56 1122.13 1027.04 1122.64C1027.53 1123.15 1028.15 1123.41 1028.9 1123.41C1029.64 1123.41 1030.24 1123.16 1030.71 1122.66C1031.19 1122.16 1031.54 1121.41 1031.77 1120.41C1032 1119.4 1032.12 1118.13 1032.12 1116.61C1032.12 1115.12 1032 1113.88 1031.77 1112.88C1031.54 1111.86 1031.19 1111.11 1030.71 1110.61C1030.24 1110.1 1029.63 1109.84 1028.88 1109.84C1027.74 1109.84 1026.91 1110.41 1026.4 1111.55C1025.89 1112.67 1025.63 1114.36 1025.63 1116.61ZM1045.65 1108.05V1110.17H1040.41V1125.2H1038.01V1108.05H1045.65ZM1054.24 1107.73C1055.89 1107.73 1057.13 1108.47 1057.98 1109.95C1058.83 1111.42 1059.26 1113.64 1059.26 1116.59C1059.26 1118.5 1059.07 1120.12 1058.68 1121.45C1058.3 1122.78 1057.75 1123.79 1057.02 1124.48C1056.29 1125.17 1055.41 1125.52 1054.37 1125.52C1053.78 1125.52 1053.24 1125.41 1052.74 1125.19C1052.24 1124.96 1051.8 1124.64 1051.41 1124.23C1051.03 1123.82 1050.71 1123.33 1050.45 1122.78H1050.34C1050.36 1123.2 1050.38 1123.6 1050.4 1123.98C1050.43 1124.37 1050.45 1124.73 1050.45 1125.08V1132.86H1048.04V1108.05H1049.99L1050.29 1110.56H1050.43C1050.72 1109.93 1051.05 1109.4 1051.43 1108.98C1051.82 1108.57 1052.24 1108.26 1052.71 1108.05C1053.18 1107.84 1053.69 1107.73 1054.24 1107.73ZM1053.73 1109.81C1053 1109.81 1052.39 1110.04 1051.9 1110.5C1051.42 1110.96 1051.05 1111.65 1050.8 1112.58C1050.57 1113.49 1050.45 1114.65 1050.45 1116.05V1116.88C1050.45 1118.35 1050.57 1119.58 1050.8 1120.55C1051.05 1121.52 1051.42 1122.23 1051.91 1122.7C1052.41 1123.17 1053.03 1123.41 1053.76 1123.41C1054.42 1123.41 1054.98 1123.17 1055.43 1122.69C1055.89 1122.21 1056.23 1121.47 1056.46 1120.47C1056.69 1119.47 1056.8 1118.19 1056.8 1116.62C1056.8 1114.36 1056.57 1112.67 1056.09 1111.53C1055.62 1110.39 1054.83 1109.81 1053.73 1109.81ZM1060.79 1108.05H1063.27L1065.7 1118.08C1065.79 1118.52 1065.88 1118.94 1065.96 1119.36C1066.05 1119.78 1066.14 1120.19 1066.21 1120.61C1066.29 1121.02 1066.36 1121.43 1066.41 1121.84H1066.54C1066.62 1121.24 1066.73 1120.63 1066.85 1120.02C1066.98 1119.39 1067.12 1118.74 1067.29 1118.06L1069.65 1108.05H1072.12L1067.02 1127.95C1066.72 1129.1 1066.37 1130.04 1065.96 1130.77C1065.55 1131.49 1065.08 1132.03 1064.52 1132.38C1063.98 1132.72 1063.34 1132.89 1062.59 1132.89C1062.34 1132.89 1062.09 1132.86 1061.84 1132.81C1061.59 1132.76 1061.32 1132.7 1061.04 1132.62V1130.48C1061.24 1130.56 1061.44 1130.61 1061.65 1130.66C1061.87 1130.7 1062.08 1130.72 1062.27 1130.72C1062.67 1130.72 1063.01 1130.61 1063.29 1130.41C1063.57 1130.21 1063.82 1129.88 1064.04 1129.41C1064.26 1128.94 1064.47 1128.3 1064.68 1127.48L1065.29 1125.08L1060.79 1108.05ZM1077.07 1107.73C1078 1107.73 1078.79 1107.91 1079.45 1108.27C1080.11 1108.61 1080.62 1109.11 1080.96 1109.77C1081.32 1110.41 1081.49 1111.19 1081.49 1112.11C1081.49 1113.03 1081.27 1113.84 1080.82 1114.55C1080.37 1115.26 1079.8 1115.73 1079.12 1115.98V1116.11C1079.72 1116.29 1080.24 1116.57 1080.66 1116.97C1081.1 1117.35 1081.43 1117.84 1081.66 1118.42C1081.89 1118.99 1082.01 1119.66 1082.01 1120.41C1082.01 1121.42 1081.81 1122.31 1081.41 1123.08C1081.02 1123.84 1080.45 1124.44 1079.7 1124.88C1078.96 1125.3 1078.06 1125.52 1077.01 1125.52C1076.48 1125.52 1075.98 1125.47 1075.51 1125.39C1075.05 1125.31 1074.62 1125.18 1074.21 1125.02C1073.82 1124.85 1073.44 1124.64 1073.09 1124.38V1122.09C1073.59 1122.48 1074.14 1122.8 1074.76 1123.06C1075.38 1123.31 1076.06 1123.44 1076.79 1123.44C1077.39 1123.44 1077.9 1123.32 1078.3 1123.08C1078.72 1122.83 1079.04 1122.47 1079.26 1122C1079.48 1121.53 1079.59 1120.95 1079.59 1120.27C1079.59 1119.64 1079.47 1119.1 1079.24 1118.64C1079.01 1118.17 1078.67 1117.81 1078.21 1117.55C1077.76 1117.29 1077.19 1117.16 1076.49 1117.16H1075.48V1115.22H1076.45C1077.26 1115.22 1077.9 1114.96 1078.38 1114.45C1078.86 1113.94 1079.1 1113.22 1079.1 1112.28C1079.1 1111.45 1078.9 1110.82 1078.49 1110.41C1078.09 1109.98 1077.53 1109.77 1076.82 1109.77C1076.4 1109.77 1075.97 1109.83 1075.52 1109.97C1075.09 1110.1 1074.65 1110.31 1074.21 1110.59L1073.27 1108.78C1073.9 1108.42 1074.52 1108.15 1075.13 1107.98C1075.76 1107.82 1076.4 1107.73 1077.07 1107.73ZM1087.77 1108.05V1118.02C1087.77 1118.33 1087.77 1118.64 1087.76 1118.94C1087.76 1119.24 1087.75 1119.54 1087.73 1119.84C1087.72 1120.15 1087.7 1120.46 1087.68 1120.78C1087.66 1121.09 1087.64 1121.42 1087.62 1121.77L1093.37 1108.05H1096.12V1125.2H1093.8V1115.53C1093.8 1115.08 1093.8 1114.64 1093.8 1114.19C1093.82 1113.74 1093.83 1113.29 1093.85 1112.84C1093.87 1112.4 1093.89 1111.95 1093.91 1111.5L1088.13 1125.2H1085.41V1108.05H1087.77ZM1105.27 1125.52C1104.01 1125.52 1102.96 1125.19 1102.12 1124.53C1101.28 1123.88 1100.66 1122.9 1100.24 1121.59C1099.83 1120.29 1099.62 1118.68 1099.62 1116.75C1099.62 1114.86 1099.83 1113.25 1100.24 1111.91C1100.67 1110.56 1101.31 1109.53 1102.16 1108.81C1103.02 1108.09 1104.09 1107.73 1105.37 1107.73C1106.01 1107.73 1106.59 1107.8 1107.1 1107.94C1107.62 1108.07 1108.11 1108.27 1108.55 1108.52L1107.79 1110.5C1107.4 1110.29 1107.02 1110.14 1106.63 1110.03C1106.26 1109.93 1105.89 1109.88 1105.52 1109.88C1104.77 1109.88 1104.14 1110.14 1103.63 1110.66C1103.12 1111.17 1102.73 1111.93 1102.46 1112.94C1102.2 1113.95 1102.07 1115.21 1102.07 1116.72C1102.07 1118.19 1102.2 1119.42 1102.45 1120.41C1102.71 1121.4 1103.09 1122.15 1103.6 1122.66C1104.12 1123.16 1104.77 1123.41 1105.54 1123.41C1106 1123.41 1106.46 1123.34 1106.93 1123.22C1107.41 1123.08 1107.89 1122.89 1108.37 1122.64V1124.67C1107.93 1124.94 1107.42 1125.15 1106.84 1125.3C1106.26 1125.44 1105.74 1125.52 1105.27 1125.52ZM1113.73 1115.22H1115.54C1116.76 1115.22 1117.78 1115.41 1118.6 1115.78C1119.42 1116.16 1120.04 1116.71 1120.46 1117.44C1120.89 1118.17 1121.1 1119.07 1121.1 1120.16C1121.1 1121.25 1120.89 1122.17 1120.46 1122.92C1120.04 1123.67 1119.43 1124.24 1118.62 1124.62C1117.8 1125.01 1116.81 1125.2 1115.63 1125.2H1111.32V1108.05H1113.73V1115.22ZM1118.7 1120.27C1118.7 1119.24 1118.44 1118.47 1117.93 1117.95C1117.42 1117.42 1116.64 1117.16 1115.59 1117.16H1113.73V1123.27H1115.57C1116.61 1123.27 1117.39 1123.01 1117.91 1122.5C1118.43 1121.99 1118.7 1121.24 1118.7 1120.27ZM600.555 1154.27C600.555 1155.28 600.352 1156.1 599.945 1156.75C599.539 1157.4 598.909 1157.83 598.055 1158.06V1158.19C599.003 1158.35 599.732 1158.79 600.242 1159.48C600.753 1160.18 601.008 1161.07 601.008 1162.16C601.008 1163.22 600.81 1164.13 600.414 1164.89C600.029 1165.64 599.456 1166.21 598.695 1166.61C597.935 1167.01 596.987 1167.2 595.852 1167.2H591.039V1150.05H595.602C596.695 1150.05 597.607 1150.21 598.336 1150.53C599.076 1150.85 599.628 1151.33 599.992 1151.95C600.367 1152.58 600.555 1153.35 600.555 1154.27ZM598.586 1161.97C598.586 1160.95 598.352 1160.22 597.883 1159.8C597.414 1159.36 596.727 1159.14 595.82 1159.14H593.445V1165.27H595.742C596.721 1165.27 597.44 1165 597.898 1164.47C598.357 1163.94 598.586 1163.1 598.586 1161.97ZM598.133 1154.47C598.133 1153.67 597.914 1153.05 597.477 1152.62C597.039 1152.2 596.372 1151.98 595.477 1151.98H593.445V1157.25H595.758C596.591 1157.25 597.195 1157.03 597.57 1156.58C597.945 1156.12 598.133 1155.42 598.133 1154.47ZM619.805 1154.27C619.805 1155.28 619.602 1156.1 619.195 1156.75C618.789 1157.4 618.159 1157.83 617.305 1158.06V1158.19C618.253 1158.35 618.982 1158.79 619.492 1159.48C620.003 1160.18 620.258 1161.07 620.258 1162.16C620.258 1163.22 620.06 1164.13 619.664 1164.89C619.279 1165.64 618.706 1166.21 617.945 1166.61C617.185 1167.01 616.237 1167.2 615.102 1167.2H610.289V1150.05H614.852C615.945 1150.05 616.857 1150.21 617.586 1150.53C618.326 1150.85 618.878 1151.33 619.242 1151.95C619.617 1152.58 619.805 1153.35 619.805 1154.27ZM617.836 1161.97C617.836 1160.95 617.602 1160.22 617.133 1159.8C616.664 1159.36 615.977 1159.14 615.07 1159.14H612.695V1165.27H614.992C615.971 1165.27 616.69 1165 617.148 1164.47C617.607 1163.94 617.836 1163.1 617.836 1161.97ZM617.383 1154.47C617.383 1153.67 617.164 1153.05 616.727 1152.62C616.289 1152.2 615.622 1151.98 614.727 1151.98H612.695V1157.25H615.008C615.841 1157.25 616.445 1157.03 616.82 1156.58C617.195 1156.12 617.383 1155.42 617.383 1154.47ZM634.242 1158.61C634.242 1159.96 634.128 1161.19 633.898 1162.28C633.669 1163.38 633.32 1164.31 632.852 1165.09C632.383 1165.88 631.789 1166.47 631.07 1166.89C630.352 1167.31 629.503 1167.52 628.523 1167.52C627.586 1167.52 626.763 1167.31 626.055 1166.89C625.346 1166.47 624.758 1165.88 624.289 1165.11C623.82 1164.33 623.466 1163.39 623.227 1162.3C622.987 1161.19 622.867 1159.96 622.867 1158.61C622.867 1156.71 623.07 1155.11 623.477 1153.8C623.883 1152.47 624.508 1151.47 625.352 1150.78C626.195 1150.08 627.268 1149.73 628.57 1149.73C629.789 1149.73 630.82 1150.07 631.664 1150.75C632.508 1151.42 633.148 1152.41 633.586 1153.73C634.023 1155.05 634.242 1156.67 634.242 1158.61ZM625.32 1158.61C625.32 1160.1 625.435 1161.35 625.664 1162.36C625.893 1163.37 626.247 1164.13 626.727 1164.64C627.216 1165.15 627.836 1165.41 628.586 1165.41C629.326 1165.41 629.93 1165.16 630.398 1164.66C630.878 1164.16 631.232 1163.41 631.461 1162.41C631.69 1161.4 631.805 1160.13 631.805 1158.61C631.805 1157.12 631.69 1155.88 631.461 1154.88C631.232 1153.86 630.878 1153.11 630.398 1152.61C629.93 1152.1 629.32 1151.84 628.57 1151.84C627.424 1151.84 626.596 1152.41 626.086 1153.55C625.576 1154.67 625.32 1156.36 625.32 1158.61ZM647.086 1150.05V1165.09H648.836V1173.14H646.508V1167.2H638.164V1173.14H635.82V1165.09H637.18C637.773 1163.67 638.258 1162.12 638.633 1160.47C639.018 1158.8 639.31 1157.08 639.508 1155.31C639.706 1153.54 639.82 1151.79 639.852 1150.05H647.086ZM644.711 1152.14H641.977C641.935 1153.51 641.831 1154.93 641.664 1156.42C641.497 1157.91 641.247 1159.4 640.914 1160.88C640.591 1162.35 640.159 1163.76 639.617 1165.09H644.711V1152.14ZM662.211 1158.61C662.211 1159.96 662.096 1161.19 661.867 1162.28C661.638 1163.38 661.289 1164.31 660.82 1165.09C660.352 1165.88 659.758 1166.47 659.039 1166.89C658.32 1167.31 657.471 1167.52 656.492 1167.52C655.555 1167.52 654.732 1167.31 654.023 1166.89C653.315 1166.47 652.727 1165.88 652.258 1165.11C651.789 1164.33 651.435 1163.39 651.195 1162.3C650.956 1161.19 650.836 1159.96 650.836 1158.61C650.836 1156.71 651.039 1155.11 651.445 1153.8C651.852 1152.47 652.477 1151.47 653.32 1150.78C654.164 1150.08 655.237 1149.73 656.539 1149.73C657.758 1149.73 658.789 1150.07 659.633 1150.75C660.477 1151.42 661.117 1152.41 661.555 1153.73C661.992 1155.05 662.211 1156.67 662.211 1158.61ZM653.289 1158.61C653.289 1160.1 653.404 1161.35 653.633 1162.36C653.862 1163.37 654.216 1164.13 654.695 1164.64C655.185 1165.15 655.805 1165.41 656.555 1165.41C657.294 1165.41 657.898 1165.16 658.367 1164.66C658.846 1164.16 659.201 1163.41 659.43 1162.41C659.659 1161.4 659.773 1160.13 659.773 1158.61C659.773 1157.12 659.659 1155.88 659.43 1154.88C659.201 1153.86 658.846 1153.11 658.367 1152.61C657.898 1152.1 657.289 1151.84 656.539 1151.84C655.393 1151.84 654.565 1152.41 654.055 1153.55C653.544 1154.67 653.289 1156.36 653.289 1158.61ZM675.18 1154.27C675.18 1155.28 674.977 1156.1 674.57 1156.75C674.164 1157.4 673.534 1157.83 672.68 1158.06V1158.19C673.628 1158.35 674.357 1158.79 674.867 1159.48C675.378 1160.18 675.633 1161.07 675.633 1162.16C675.633 1163.22 675.435 1164.13 675.039 1164.89C674.654 1165.64 674.081 1166.21 673.32 1166.61C672.56 1167.01 671.612 1167.2 670.477 1167.2H665.664V1150.05H670.227C671.32 1150.05 672.232 1150.21 672.961 1150.53C673.701 1150.85 674.253 1151.33 674.617 1151.95C674.992 1152.58 675.18 1153.35 675.18 1154.27ZM673.211 1161.97C673.211 1160.95 672.977 1160.22 672.508 1159.8C672.039 1159.36 671.352 1159.14 670.445 1159.14H668.07V1165.27H670.367C671.346 1165.27 672.065 1165 672.523 1164.47C672.982 1163.94 673.211 1163.1 673.211 1161.97ZM672.758 1154.47C672.758 1153.67 672.539 1153.05 672.102 1152.62C671.664 1152.2 670.997 1151.98 670.102 1151.98H668.07V1157.25H670.383C671.216 1157.25 671.82 1157.03 672.195 1156.58C672.57 1156.12 672.758 1155.42 672.758 1154.47ZM689.617 1158.61C689.617 1159.96 689.503 1161.19 689.273 1162.28C689.044 1163.38 688.695 1164.31 688.227 1165.09C687.758 1165.88 687.164 1166.47 686.445 1166.89C685.727 1167.31 684.878 1167.52 683.898 1167.52C682.961 1167.52 682.138 1167.31 681.43 1166.89C680.721 1166.47 680.133 1165.88 679.664 1165.11C679.195 1164.33 678.841 1163.39 678.602 1162.3C678.362 1161.19 678.242 1159.96 678.242 1158.61C678.242 1156.71 678.445 1155.11 678.852 1153.8C679.258 1152.47 679.883 1151.47 680.727 1150.78C681.57 1150.08 682.643 1149.73 683.945 1149.73C685.164 1149.73 686.195 1150.07 687.039 1150.75C687.883 1151.42 688.523 1152.41 688.961 1153.73C689.398 1155.05 689.617 1156.67 689.617 1158.61ZM680.695 1158.61C680.695 1160.1 680.81 1161.35 681.039 1162.36C681.268 1163.37 681.622 1164.13 682.102 1164.64C682.591 1165.15 683.211 1165.41 683.961 1165.41C684.701 1165.41 685.305 1165.16 685.773 1164.66C686.253 1164.16 686.607 1163.41 686.836 1162.41C687.065 1161.4 687.18 1160.13 687.18 1158.61C687.18 1157.12 687.065 1155.88 686.836 1154.88C686.607 1153.86 686.253 1153.11 685.773 1152.61C685.305 1152.1 684.695 1151.84 683.945 1151.84C682.799 1151.84 681.971 1152.41 681.461 1153.55C680.951 1154.67 680.695 1156.36 680.695 1158.61ZM699.273 1149.73C700.919 1149.73 702.164 1150.47 703.008 1151.95C703.862 1153.42 704.289 1155.64 704.289 1158.59C704.289 1160.5 704.096 1162.12 703.711 1163.45C703.336 1164.78 702.784 1165.79 702.055 1166.48C701.326 1167.17 700.44 1167.52 699.398 1167.52C698.815 1167.52 698.273 1167.41 697.773 1167.19C697.273 1166.96 696.831 1166.64 696.445 1166.23C696.06 1165.82 695.737 1165.33 695.477 1164.78H695.367C695.388 1165.2 695.409 1165.6 695.43 1165.98C695.461 1166.37 695.477 1166.73 695.477 1167.08V1174.86H693.07V1150.05H695.023L695.32 1152.56H695.461C695.753 1151.93 696.086 1151.4 696.461 1150.98C696.846 1150.57 697.273 1150.26 697.742 1150.05C698.211 1149.84 698.721 1149.73 699.273 1149.73ZM698.758 1151.81C698.029 1151.81 697.419 1152.04 696.93 1152.5C696.451 1152.96 696.086 1153.65 695.836 1154.58C695.596 1155.49 695.477 1156.65 695.477 1158.05V1158.88C695.477 1160.35 695.596 1161.58 695.836 1162.55C696.086 1163.52 696.456 1164.23 696.945 1164.7C697.445 1165.17 698.06 1165.41 698.789 1165.41C699.456 1165.41 700.013 1165.17 700.461 1164.69C700.919 1164.21 701.263 1163.47 701.492 1162.47C701.721 1161.47 701.836 1160.19 701.836 1158.62C701.836 1156.36 701.596 1154.67 701.117 1153.53C700.648 1152.39 699.862 1151.81 698.758 1151.81ZM718.367 1158.61C718.367 1159.96 718.253 1161.19 718.023 1162.28C717.794 1163.38 717.445 1164.31 716.977 1165.09C716.508 1165.88 715.914 1166.47 715.195 1166.89C714.477 1167.31 713.628 1167.52 712.648 1167.52C711.711 1167.52 710.888 1167.31 710.18 1166.89C709.471 1166.47 708.883 1165.88 708.414 1165.11C707.945 1164.33 707.591 1163.39 707.352 1162.3C707.112 1161.19 706.992 1159.96 706.992 1158.61C706.992 1156.71 707.195 1155.11 707.602 1153.8C708.008 1152.47 708.633 1151.47 709.477 1150.78C710.32 1150.08 711.393 1149.73 712.695 1149.73C713.914 1149.73 714.945 1150.07 715.789 1150.75C716.633 1151.42 717.273 1152.41 717.711 1153.73C718.148 1155.05 718.367 1156.67 718.367 1158.61ZM709.445 1158.61C709.445 1160.1 709.56 1161.35 709.789 1162.36C710.018 1163.37 710.372 1164.13 710.852 1164.64C711.341 1165.15 711.961 1165.41 712.711 1165.41C713.451 1165.41 714.055 1165.16 714.523 1164.66C715.003 1164.16 715.357 1163.41 715.586 1162.41C715.815 1161.4 715.93 1160.13 715.93 1158.61C715.93 1157.12 715.815 1155.88 715.586 1154.88C715.357 1153.86 715.003 1153.11 714.523 1152.61C714.055 1152.1 713.445 1151.84 712.695 1151.84C711.549 1151.84 710.721 1152.41 710.211 1153.55C709.701 1154.67 709.445 1156.36 709.445 1158.61ZM729.008 1152.14H725.727V1167.2H723.352V1152.14H720.039V1150.05H729.008V1152.14ZM749.633 1173.14H747.258V1167.2H737.352V1150.05H739.758V1165.09H745.43V1150.05H747.805V1165.09H749.633V1173.14ZM761.836 1154.27C761.836 1155.28 761.633 1156.1 761.227 1156.75C760.82 1157.4 760.19 1157.83 759.336 1158.06V1158.19C760.284 1158.35 761.013 1158.79 761.523 1159.48C762.034 1160.18 762.289 1161.07 762.289 1162.16C762.289 1163.22 762.091 1164.13 761.695 1164.89C761.31 1165.64 760.737 1166.21 759.977 1166.61C759.216 1167.01 758.268 1167.2 757.133 1167.2H752.32V1150.05H756.883C757.977 1150.05 758.888 1150.21 759.617 1150.53C760.357 1150.85 760.909 1151.33 761.273 1151.95C761.648 1152.58 761.836 1153.35 761.836 1154.27ZM759.867 1161.97C759.867 1160.95 759.633 1160.22 759.164 1159.8C758.695 1159.36 758.008 1159.14 757.102 1159.14H754.727V1165.27H757.023C758.003 1165.27 758.721 1165 759.18 1164.47C759.638 1163.94 759.867 1163.1 759.867 1161.97ZM759.414 1154.47C759.414 1153.67 759.195 1153.05 758.758 1152.62C758.32 1152.2 757.654 1151.98 756.758 1151.98H754.727V1157.25H757.039C757.872 1157.25 758.477 1157.03 758.852 1156.58C759.227 1156.12 759.414 1155.42 759.414 1154.47ZM770.352 1149.77C771.518 1149.77 772.477 1150.1 773.227 1150.78C773.987 1151.46 774.549 1152.37 774.914 1153.52C775.289 1154.66 775.477 1155.94 775.477 1157.34V1159.05H767.305C767.326 1161.18 767.654 1162.79 768.289 1163.86C768.935 1164.93 769.904 1165.47 771.195 1165.47C771.81 1165.47 772.414 1165.38 773.008 1165.19C773.602 1165 774.216 1164.7 774.852 1164.28V1166.44C774.258 1166.8 773.638 1167.07 772.992 1167.25C772.346 1167.43 771.659 1167.52 770.93 1167.52C769.503 1167.52 768.346 1167.14 767.461 1166.38C766.576 1165.6 765.93 1164.56 765.523 1163.23C765.128 1161.9 764.93 1160.4 764.93 1158.72C764.93 1156.8 765.133 1155.18 765.539 1153.84C765.945 1152.51 766.549 1151.5 767.352 1150.81C768.164 1150.11 769.164 1149.77 770.352 1149.77ZM770.352 1151.73C769.445 1151.73 768.737 1152.18 768.227 1153.06C767.716 1153.94 767.419 1155.29 767.336 1157.12H773.227C773.227 1156.16 773.122 1155.27 772.914 1154.45C772.716 1153.63 772.404 1152.97 771.977 1152.48C771.56 1151.98 771.018 1151.73 770.352 1151.73ZM786.07 1152.14H782.789V1167.2H780.414V1152.14H777.102V1150.05H786.07V1152.14ZM793.07 1149.73C794.654 1149.73 795.784 1150.24 796.461 1151.25C797.138 1152.26 797.477 1153.72 797.477 1155.64V1167.2H795.648L795.289 1164.77H795.227C794.956 1165.35 794.633 1165.85 794.258 1166.27C793.883 1166.67 793.456 1166.98 792.977 1167.2C792.497 1167.41 791.945 1167.52 791.32 1167.52C790.435 1167.52 789.711 1167.28 789.148 1166.81C788.586 1166.34 788.169 1165.73 787.898 1164.97C787.628 1164.2 787.492 1163.37 787.492 1162.48C787.492 1160.79 787.982 1159.47 788.961 1158.53C789.94 1157.59 791.331 1157.08 793.133 1157L795.086 1156.88V1155.7C795.086 1154.33 794.898 1153.32 794.523 1152.69C794.148 1152.05 793.544 1151.73 792.711 1151.73C792.232 1151.73 791.727 1151.82 791.195 1151.98C790.674 1152.15 790.107 1152.42 789.492 1152.78L788.727 1150.97C789.372 1150.55 790.06 1150.24 790.789 1150.05C791.529 1149.84 792.289 1149.73 793.07 1149.73ZM795.117 1158.64L793.523 1158.75C792.315 1158.82 791.414 1159.17 790.82 1159.78C790.237 1160.39 789.945 1161.27 789.945 1162.42C789.945 1163.49 790.138 1164.29 790.523 1164.8C790.909 1165.31 791.44 1165.56 792.117 1165.56C793.065 1165.56 793.799 1165.1 794.32 1164.19C794.852 1163.27 795.117 1162.01 795.117 1160.39V1158.64ZM804.711 1163.61L804.914 1163.95C804.716 1164.82 804.497 1165.68 804.258 1166.53C804.018 1167.39 803.758 1168.22 803.477 1169.03C803.195 1169.85 802.883 1170.65 802.539 1171.41H800.695C800.935 1170.53 801.148 1169.64 801.336 1168.73C801.534 1167.83 801.701 1166.94 801.836 1166.06C801.982 1165.19 802.091 1164.37 802.164 1163.61H804.711ZM817.352 1149.73C818.279 1149.73 819.07 1149.91 819.727 1150.27C820.393 1150.61 820.898 1151.11 821.242 1151.77C821.596 1152.41 821.773 1153.19 821.773 1154.11C821.773 1155.03 821.549 1155.84 821.102 1156.55C820.654 1157.26 820.086 1157.73 819.398 1157.98V1158.11C820.003 1158.29 820.518 1158.57 820.945 1158.97C821.383 1159.35 821.716 1159.84 821.945 1160.42C822.174 1160.99 822.289 1161.66 822.289 1162.41C822.289 1163.42 822.091 1164.31 821.695 1165.08C821.299 1165.84 820.727 1166.44 819.977 1166.88C819.237 1167.3 818.341 1167.52 817.289 1167.52C816.758 1167.52 816.258 1167.47 815.789 1167.39C815.331 1167.31 814.898 1167.18 814.492 1167.02C814.096 1166.85 813.721 1166.64 813.367 1166.38V1164.09C813.867 1164.48 814.424 1164.8 815.039 1165.06C815.664 1165.31 816.341 1165.44 817.07 1165.44C817.674 1165.44 818.18 1165.32 818.586 1165.08C819.003 1164.83 819.32 1164.47 819.539 1164C819.758 1163.53 819.867 1162.95 819.867 1162.27C819.867 1161.64 819.753 1161.1 819.523 1160.64C819.294 1160.17 818.951 1159.81 818.492 1159.55C818.044 1159.29 817.471 1159.16 816.773 1159.16H815.758V1157.22H816.727C817.539 1157.22 818.185 1156.96 818.664 1156.45C819.143 1155.94 819.383 1155.22 819.383 1154.28C819.383 1153.45 819.18 1152.82 818.773 1152.41C818.367 1151.98 817.81 1151.77 817.102 1151.77C816.685 1151.77 816.253 1151.83 815.805 1151.97C815.367 1152.1 814.93 1152.31 814.492 1152.59L813.555 1150.78C814.18 1150.42 814.799 1150.15 815.414 1149.98C816.039 1149.82 816.685 1149.73 817.352 1149.73ZM835.211 1154.27C835.211 1155.28 835.008 1156.1 834.602 1156.75C834.195 1157.4 833.565 1157.83 832.711 1158.06V1158.19C833.659 1158.35 834.388 1158.79 834.898 1159.48C835.409 1160.18 835.664 1161.07 835.664 1162.16C835.664 1163.22 835.466 1164.13 835.07 1164.89C834.685 1165.64 834.112 1166.21 833.352 1166.61C832.591 1167.01 831.643 1167.2 830.508 1167.2H825.695V1150.05H830.258C831.352 1150.05 832.263 1150.21 832.992 1150.53C833.732 1150.85 834.284 1151.33 834.648 1151.95C835.023 1152.58 835.211 1153.35 835.211 1154.27ZM833.242 1161.97C833.242 1160.95 833.008 1160.22 832.539 1159.8C832.07 1159.36 831.383 1159.14 830.477 1159.14H828.102V1165.27H830.398C831.378 1165.27 832.096 1165 832.555 1164.47C833.013 1163.94 833.242 1163.1 833.242 1161.97ZM832.789 1154.47C832.789 1153.67 832.57 1153.05 832.133 1152.62C831.695 1152.2 831.029 1151.98 830.133 1151.98H828.102V1157.25H830.414C831.247 1157.25 831.852 1157.03 832.227 1156.58C832.602 1156.12 832.789 1155.42 832.789 1154.47ZM837.102 1150.05H839.586L842.008 1160.08C842.102 1160.52 842.19 1160.94 842.273 1161.36C842.367 1161.78 842.451 1162.19 842.523 1162.61C842.607 1163.02 842.674 1163.43 842.727 1163.84H842.852C842.935 1163.24 843.039 1162.63 843.164 1162.02C843.289 1161.39 843.435 1160.74 843.602 1160.06L845.961 1150.05H848.43L843.336 1169.95C843.034 1171.1 842.68 1172.04 842.273 1172.77C841.867 1173.49 841.388 1174.03 840.836 1174.38C840.294 1174.72 839.648 1174.89 838.898 1174.89C838.648 1174.89 838.398 1174.86 838.148 1174.81C837.898 1174.76 837.633 1174.7 837.352 1174.62V1172.48C837.549 1172.56 837.753 1172.61 837.961 1172.66C838.18 1172.7 838.388 1172.72 838.586 1172.72C838.982 1172.72 839.32 1172.61 839.602 1172.41C839.883 1172.21 840.133 1171.88 840.352 1171.41C840.57 1170.94 840.784 1170.3 840.992 1169.48L841.602 1167.08L837.102 1150.05ZM857.742 1150.05H860.383L855.445 1158.14L860.773 1167.2H858.055L853.07 1158.3V1167.2H850.664V1150.05H853.07V1158.16L857.742 1150.05ZM867.57 1149.73C869.154 1149.73 870.284 1150.24 870.961 1151.25C871.638 1152.26 871.977 1153.72 871.977 1155.64V1167.2H870.148L869.789 1164.77H869.727C869.456 1165.35 869.133 1165.85 868.758 1166.27C868.383 1166.67 867.956 1166.98 867.477 1167.2C866.997 1167.41 866.445 1167.52 865.82 1167.52C864.935 1167.52 864.211 1167.28 863.648 1166.81C863.086 1166.34 862.669 1165.73 862.398 1164.97C862.128 1164.2 861.992 1163.37 861.992 1162.48C861.992 1160.79 862.482 1159.47 863.461 1158.53C864.44 1157.59 865.831 1157.08 867.633 1157L869.586 1156.88V1155.7C869.586 1154.33 869.398 1153.32 869.023 1152.69C868.648 1152.05 868.044 1151.73 867.211 1151.73C866.732 1151.73 866.227 1151.82 865.695 1151.98C865.174 1152.15 864.607 1152.42 863.992 1152.78L863.227 1150.97C863.872 1150.55 864.56 1150.24 865.289 1150.05C866.029 1149.84 866.789 1149.73 867.57 1149.73ZM869.617 1158.64L868.023 1158.75C866.815 1158.82 865.914 1159.17 865.32 1159.78C864.737 1160.39 864.445 1161.27 864.445 1162.42C864.445 1163.49 864.638 1164.29 865.023 1164.8C865.409 1165.31 865.94 1165.56 866.617 1165.56C867.565 1165.56 868.299 1165.1 868.82 1164.19C869.352 1163.27 869.617 1162.01 869.617 1160.39V1158.64ZM884.43 1150.05V1160.02C884.43 1160.33 884.424 1160.64 884.414 1160.94C884.414 1161.24 884.404 1161.54 884.383 1161.84C884.372 1162.15 884.357 1162.46 884.336 1162.78C884.315 1163.09 884.294 1163.42 884.273 1163.77L890.023 1150.05H892.773V1167.2H890.461V1157.53C890.461 1157.08 890.461 1156.64 890.461 1156.19C890.471 1155.74 890.487 1155.29 890.508 1154.84C890.529 1154.4 890.549 1153.95 890.57 1153.5L884.789 1167.2H882.07V1150.05H884.43ZM904.945 1167.52C904.352 1167.52 903.768 1167.44 903.195 1167.28C902.622 1167.14 902.133 1166.93 901.727 1166.67V1164.59C902.227 1164.85 902.727 1165.06 903.227 1165.22C903.727 1165.36 904.232 1165.44 904.742 1165.44C905.523 1165.44 906.185 1165.22 906.727 1164.78C907.268 1164.34 907.685 1163.68 907.977 1162.78C908.279 1161.88 908.456 1160.72 908.508 1159.33H903.93V1157.38H908.461C908.357 1155.52 908.013 1154.13 907.43 1153.2C906.846 1152.28 906.023 1151.81 904.961 1151.81C904.555 1151.81 904.122 1151.88 903.664 1152.02C903.216 1152.15 902.857 1152.31 902.586 1152.48L901.805 1150.53C902.326 1150.26 902.852 1150.06 903.383 1149.94C903.914 1149.8 904.466 1149.73 905.039 1149.73C906.331 1149.73 907.414 1150.07 908.289 1150.75C909.174 1151.43 909.846 1152.42 910.305 1153.73C910.763 1155.04 910.992 1156.65 910.992 1158.56C910.992 1160.51 910.768 1162.15 910.32 1163.48C909.872 1164.81 909.201 1165.81 908.305 1166.5C907.409 1167.18 906.289 1167.52 904.945 1167.52ZM928.148 1150.05V1167.2H925.836V1157.73C925.836 1157.24 925.852 1156.62 925.883 1155.86C925.924 1155.09 925.977 1154.2 926.039 1153.2H925.914L922.336 1167.2H920.195L916.664 1153.2H916.523C916.576 1154.08 916.617 1154.92 916.648 1155.73C916.69 1156.54 916.711 1157.18 916.711 1157.67V1167.2H914.445V1150.05H917.867L921.289 1163.81L924.758 1150.05H928.148ZM942.961 1158.61C942.961 1159.96 942.846 1161.19 942.617 1162.28C942.388 1163.38 942.039 1164.31 941.57 1165.09C941.102 1165.88 940.508 1166.47 939.789 1166.89C939.07 1167.31 938.221 1167.52 937.242 1167.52C936.305 1167.52 935.482 1167.31 934.773 1166.89C934.065 1166.47 933.477 1165.88 933.008 1165.11C932.539 1164.33 932.185 1163.39 931.945 1162.3C931.706 1161.19 931.586 1159.96 931.586 1158.61C931.586 1156.71 931.789 1155.11 932.195 1153.8C932.602 1152.47 933.227 1151.47 934.07 1150.78C934.914 1150.08 935.987 1149.73 937.289 1149.73C938.508 1149.73 939.539 1150.07 940.383 1150.75C941.227 1151.42 941.867 1152.41 942.305 1153.73C942.742 1155.05 942.961 1156.67 942.961 1158.61ZM934.039 1158.61C934.039 1160.1 934.154 1161.35 934.383 1162.36C934.612 1163.37 934.966 1164.13 935.445 1164.64C935.935 1165.15 936.555 1165.41 937.305 1165.41C938.044 1165.41 938.648 1165.16 939.117 1164.66C939.596 1164.16 939.951 1163.41 940.18 1162.41C940.409 1161.4 940.523 1160.13 940.523 1158.61C940.523 1157.12 940.409 1155.88 940.18 1154.88C939.951 1153.86 939.596 1153.11 939.117 1152.61C938.648 1152.1 938.039 1151.84 937.289 1151.84C936.143 1151.84 935.315 1152.41 934.805 1153.55C934.294 1154.67 934.039 1156.36 934.039 1158.61ZM958.695 1173.14H956.32V1167.2H946.414V1150.05H948.82V1165.09H954.492V1150.05H956.867V1165.09H958.695V1173.14ZM963.742 1150.05V1160.02C963.742 1160.33 963.737 1160.64 963.727 1160.94C963.727 1161.24 963.716 1161.54 963.695 1161.84C963.685 1162.15 963.669 1162.46 963.648 1162.78C963.628 1163.09 963.607 1163.42 963.586 1163.77L969.336 1150.05H972.086V1167.2H969.773V1157.53C969.773 1157.08 969.773 1156.64 969.773 1156.19C969.784 1155.74 969.799 1155.29 969.82 1154.84C969.841 1154.4 969.862 1153.95 969.883 1153.5L964.102 1167.2H961.383V1150.05H963.742ZM978.648 1150.05V1160.02C978.648 1160.33 978.643 1160.64 978.633 1160.94C978.633 1161.24 978.622 1161.54 978.602 1161.84C978.591 1162.15 978.576 1162.46 978.555 1162.78C978.534 1163.09 978.513 1163.42 978.492 1163.77L984.242 1150.05H986.992V1167.2H984.68V1157.53C984.68 1157.08 984.68 1156.64 984.68 1156.19C984.69 1155.74 984.706 1155.29 984.727 1154.84C984.747 1154.4 984.768 1153.95 984.789 1153.5L979.008 1167.2H976.289V1150.05H978.648ZM986.242 1143.11C986.169 1144.15 985.951 1145.03 985.586 1145.73C985.221 1146.43 984.716 1146.96 984.07 1147.31C983.424 1147.67 982.633 1147.84 981.695 1147.84C980.747 1147.84 979.951 1147.68 979.305 1147.34C978.659 1147.01 978.159 1146.49 977.805 1145.8C977.461 1145.1 977.258 1144.2 977.195 1143.11H979.242C979.336 1144.24 979.57 1145.06 979.945 1145.56C980.331 1146.06 980.914 1146.31 981.695 1146.31C982.508 1146.31 983.102 1146.05 983.477 1145.53C983.862 1145.01 984.102 1144.2 984.195 1143.11H986.242Z" fill="black"/>
<path d="M51.9279 428.775H2.77734V227.258H186.6L51.9279 428.775Z" fill="#5E83E6"/>
<path d="M809.356 229.181C872.886 225.796 954.579 228.025 1019.37 227.741C973.658 291.316 930.818 361.625 884.602 426.383C853.15 430.621 716.054 428.019 677.031 427.968C689.805 402.251 717.946 362.61 734.398 338.134C758.105 302.853 783.827 262.823 809.356 229.181Z" fill="#5E83E6"/>
<path d="M394.05 228.905C461.845 226.72 534.101 228.043 602.224 228.159C575.432 270.529 497.136 391.297 468.431 426.211C428.59 431.153 305.881 427.721 261.008 427.544C280.579 392.806 369.206 260.687 394.05 228.905Z" fill="#5E83E6"/>
<path d="M1224.97 229.007C1242.52 227.794 1263.57 227.895 1281.47 227.586C1281.97 294.431 1281.98 361.28 1281.49 428.126C1238.18 427.485 1193.91 427.886 1150.52 427.81L1092.81 428.22C1105.28 402.538 1205.7 253.234 1224.97 229.007Z" fill="#5E83E6"/>
<path d="M51.9049 0H2.70703V205H186.707L51.9049 0Z" fill="#5E83E6"/>
<path d="M887.128 2.93253C823.477 -0.510602 741.627 1.75696 676.707 1.46789C722.511 66.1391 765.434 137.661 811.738 203.537C843.25 207.847 980.609 205.201 1019.71 205.149C1006.91 178.988 978.714 138.663 962.23 113.765C938.477 77.8753 912.706 37.1551 887.128 2.93253Z" fill="#5E83E6"/>
<path d="M468.749 2.27184C400.997 0.045773 328.787 1.39366 260.707 1.51268C287.482 44.6797 365.728 167.721 394.416 203.293C434.231 208.328 556.862 204.831 601.707 204.651C582.148 169.259 493.578 34.6527 468.749 2.27184Z" fill="#5E83E6"/>
<path d="M1224.84 202.555C1242.38 203.788 1263.43 203.685 1281.33 204C1281.83 136.033 1281.83 68.0631 1281.34 0.0963135C1238.05 0.748016 1193.79 0.340317 1150.41 0.417358L1092.71 0C1105.18 26.1132 1205.57 177.922 1224.84 202.555Z" fill="#5E83E6"/>
</svg>
