<svg width="618" height="693" viewBox="0 0 618 693" fill="none" xmlns="http://www.w3.org/2000/svg">
<g clip-path="url(#clip0_2050_2488)">
<path d="M443.558 139.453C447.05 141.117 456.993 162.51 459.354 167.227C497.001 243.7 517.468 327.479 519.331 412.692C521.13 487.751 500.728 582.544 447.853 638.348C356.843 734.407 235.855 690.544 153.226 610.927C71.1404 529.147 21.985 421.059 2.94551 307.177C1.62364 299.271 0.77168 291.461 0 283.484C151.69 307.157 321.412 254.092 433.603 148.995C436.948 145.86 440.253 142.635 443.558 139.453Z" fill="#5E83E6"/>
<path d="M423.578 495.104L425.512 495.027C426.161 495.391 427.01 495.602 427.02 496.381C427.274 516.303 420.093 538.48 409.587 554.822C394.024 578.529 369.711 595.111 341.959 600.953C306.781 608.453 275.645 602.324 245.597 582.982C237.246 577.205 229.482 570.027 222.633 562.557L226.045 558.959C233.553 560.096 241.098 560.969 248.668 561.578C303.84 565.539 366.803 552.883 406.639 511.645C411.662 506.447 417.417 500.342 422.845 495.719L423.578 495.104Z" fill="#090505"/>
<path d="M387.883 298.628C416.752 296.513 448.755 312.502 457.708 341.306C458.98 345.391 460.603 352.323 458.499 356.155C458.136 356.366 457.767 356.571 457.398 356.782C453.888 355.276 446.16 350.46 443.247 348.766C423.233 337.135 398.008 336.778 375.834 341.692C359.161 346.44 343.551 354.157 330.095 365.149C327.575 367.212 321.424 373.259 318.695 373.27C317.54 372.134 316.978 371.384 316.934 369.626C315.882 328.015 349.901 302.388 387.883 298.628Z" fill="#090505"/>
<path d="M185.289 360.157C193.528 359.554 201.81 360.374 209.769 362.583C223.75 366.368 237.144 374.829 245.21 387.427C246.443 389.348 246.628 390.866 246.003 392.934C242.01 393.479 226.422 392.073 220.597 392.43C189.113 394.393 164.226 404.583 142.962 427.663C133.797 438.432 129.909 449.073 124.856 461.993C117.203 456.491 113.356 445.37 112.826 436.27C110.352 393.749 145.619 363.526 185.289 360.157Z" fill="#090505"/>
<path d="M419.27 0C424.929 3.64512 436.963 15.3006 443.086 20.2957C460.23 34.3377 478.236 47.298 496.986 59.1029C589.16 116.97 696.475 146.095 805.254 142.767C825.504 142.102 855.152 140.029 874.863 135.548C874.406 145.654 872.73 155.241 871.482 165.161C868.576 188.317 863.947 208.693 858.146 231.064C833.748 325.13 786.293 417.158 714.996 484.359C669.943 526.816 609.223 561.615 545.303 560.244C539.379 560.121 509.883 557.314 506.836 554.097L507.199 552.515C522.609 512.326 527.982 480.24 531.996 437.326C572.772 447.058 600.516 465.122 628.904 495.029C629.584 495.744 630.867 495.222 631.699 495.046C632.537 494.208 633.34 493.165 633.258 491.888C629.602 435.287 587.883 393.468 532.254 388.658C530.496 355.576 526.066 322.689 519.006 290.319C515.695 275.593 511.113 261.009 507.516 246.279C525.709 245.97 543.984 241.647 557.736 229.18C563.643 223.824 567.984 218.96 570.17 211.12C550.951 210.825 533.086 214.799 513.668 208.216C508.547 206.48 494.59 202.957 491.414 198.211C484.482 187.863 481.359 174.571 475.365 163.545C467.051 146.126 459.047 131.719 449.701 115.107C427.453 137.03 406.291 156.281 380.715 174.34C372.4 180.211 365.556 185.428 356.473 190.278C365.181 133.549 381.907 78.3451 406.15 26.3232C410.045 18.0562 414.72 7.75547 419.27 0Z" fill="#5E83E6"/>
</g>
<defs>
<clipPath id="clip0_2050_2488">
<rect width="618" height="693" fill="white"/>
</clipPath>
</defs>
</svg>
