<svg width="1920" height="1065" viewBox="0 0 1920 1065" fill="none" xmlns="http://www.w3.org/2000/svg">
<g clip-path="url(#clip0_1872_21180)">
<rect width="1920" height="1065" fill="#F7F5E3"/>
<path d="M76 929L2 1090H658.5L674 879.5L572.5 821L471 989.5L76 929Z" fill="#7F1F2F"/>
<path d="M1412.5 889L1626.5 1089H1943V701.5L1798.5 817.5L1750 689L1412.5 889Z" fill="#7F1F2F"/>
<path d="M1800 819L1938.5 705V-18H1644.5L1758 192.5L1478.5 283.5L1611.5 439.5L1650.5 406L1800 819Z" fill="#5E83E6"/>
<path d="M780 309.5L691.5 176.5L834 82L680 -16H1147.5L1410 67.5L1147.5 154.5L780 309.5Z" fill="#5E83E6" stroke="#5E83E6"/>
<path d="M75 929.5L13 1067H-4.5V101.5L326.5 355L130.5 642L536 880L470.5 991.5L75 929.5Z" fill="#5E83E6"/>
<path d="M901 676L862.5 772.5L591 787.5L471 991L75 928.5L12.5 1068.5" stroke="#241616" stroke-width="10"/>
<g clip-path="url(#clip1_1872_21180)">
<path d="M976.617 177.746C979.921 179.32 989.327 199.558 991.561 204.021C1027.18 276.366 1046.54 355.623 1048.3 436.237C1050 507.245 1030.7 596.921 980.68 649.714C894.583 740.588 780.125 699.092 701.956 623.772C624.301 546.407 577.798 444.153 559.787 336.417C558.536 328.938 557.73 321.549 557 314.003C700.503 336.399 861.064 286.198 967.199 186.773C970.365 183.807 973.491 180.757 976.617 177.746Z" fill="#241616"/>
<path d="M769 295.504L749.047 461.545L859.732 490.628L826.148 620.339L899.465 679.669L859.732 780.878" stroke="#F7F5E3" stroke-width="10"/>
<path d="M760.993 284.001L855.838 440.679L961.717 397.241L1013.02 521.019L1107.28 524.232L1136.51 628.96" stroke="#F7F5E3" stroke-width="10"/>
<path d="M957.717 514.201L959.547 514.129C960.16 514.473 960.963 514.672 960.973 515.409C961.213 534.256 954.42 555.237 944.48 570.696C929.757 593.124 906.757 608.811 880.503 614.337C847.224 621.433 817.768 615.635 789.342 597.337C781.442 591.871 774.097 585.081 767.617 578.013L770.845 574.61C777.948 575.685 785.086 576.511 792.247 577.088C844.441 580.835 904.006 568.862 941.692 529.849C946.444 524.932 951.888 519.157 957.023 514.783L957.717 514.201Z" fill="#F7F5E3"/>
<path d="M923.947 328.325C951.258 326.324 981.534 341.45 990.003 368.699C991.206 372.564 992.742 379.122 990.752 382.747C990.408 382.947 990.059 383.141 989.71 383.34C986.389 381.916 979.078 377.359 976.323 375.757C957.389 364.754 933.525 364.416 912.548 369.065C896.775 373.557 882.008 380.857 869.278 391.256C866.894 393.207 861.075 398.927 858.493 398.939C857.4 397.863 856.869 397.154 856.827 395.491C855.832 356.126 888.014 331.882 923.947 328.325Z" fill="#F7F5E3"/>
<path d="M732.294 386.533C740.088 385.962 747.922 386.738 755.452 388.828C768.679 392.409 781.35 400.413 788.98 412.331C790.147 414.149 790.322 415.585 789.73 417.542C785.953 418.057 771.206 416.727 765.696 417.065C735.911 418.922 712.367 428.561 692.251 450.396C683.581 460.584 679.902 470.65 675.122 482.873C667.882 477.668 664.242 467.147 663.741 458.539C661.401 418.312 694.764 389.721 732.294 386.533Z" fill="#F7F5E3"/>
<path d="M953.642 45.8125C958.996 49.2609 970.38 60.2873 976.173 65.0128C992.392 78.2969 1009.43 90.5577 1027.16 101.725C1114.36 156.469 1215.89 184.022 1318.79 180.873C1337.95 180.245 1366 178.283 1384.65 174.044C1384.21 183.605 1382.63 192.675 1381.45 202.059C1378.7 223.965 1374.32 243.242 1368.83 264.405C1345.75 353.394 1300.86 440.454 1233.41 504.029C1190.79 544.194 1133.34 577.115 1072.87 575.818C1067.27 575.701 1039.36 573.046 1036.48 570.003L1036.83 568.506C1051.4 530.486 1056.49 500.132 1060.28 459.534C1098.86 468.741 1125.11 485.83 1151.96 514.123C1152.6 514.799 1153.82 514.305 1154.61 514.139C1155.4 513.346 1156.16 512.36 1156.08 511.151C1152.62 457.605 1113.15 418.044 1060.53 413.493C1058.87 382.196 1054.67 351.084 1048 320.462C1044.86 306.53 1040.53 292.734 1037.12 278.799C1054.34 278.507 1071.63 274.417 1084.64 262.622C1090.22 257.556 1094.33 252.954 1096.4 245.537C1078.22 245.258 1061.32 249.018 1042.95 242.791C1038.1 241.148 1024.9 237.815 1021.89 233.325C1015.33 223.536 1012.38 210.961 1006.71 200.53C998.844 184.052 991.272 170.422 982.431 154.707C961.384 175.447 941.364 193.658 917.168 210.743C909.302 216.297 902.828 221.232 894.234 225.82C902.473 172.153 918.296 119.929 941.23 70.715C944.916 62.8942 949.337 53.1494 953.642 45.8125Z" fill="#241616"/>
<path d="M1326.03 388.315L1295.45 281.731L1200.32 277.486L1147.27 151.338" stroke="#F7F5E3" stroke-width="10"/>
<path d="M1048.52 446.384L1221.74 389.711L1200.86 277.134L1331.81 252.838L1354.02 161.362L1461.95 154.664" stroke="#F7F5E3" stroke-width="10"/>
<path d="M1163.38 267.836C1165.72 268.416 1173.17 275.244 1175.65 277.058C1205.46 298.865 1245.81 308.131 1279.95 290.792C1283.81 288.831 1294.63 281.342 1297.2 281.164C1303.64 286.912 1292.87 307.089 1288.98 312.71L1288.34 313.543C1277.78 327.265 1260.84 335.732 1243.83 337.894C1223.26 340.625 1202.46 334.975 1186.11 322.213C1172.08 311.372 1163.11 295.247 1161.31 277.611C1160.86 273.416 1160.79 270.974 1163.38 267.836Z" fill="#F7F5E3"/>
<path d="M1150 150.5L1040.91 194.315L950.999 42.0023" stroke="#5E83E6" stroke-width="10"/>
</g>
<path d="M1143 152.5L1409.5 65.5L1185 -3" stroke="#241616" stroke-width="10"/>
<path d="M685 177.5L833.5 80.5L685 -16" stroke="#241616" stroke-width="10"/>
<path d="M1326 386.5L1401 631.5L1650.5 405L1797.5 819L1920 720.5" stroke="#241616" stroke-width="10"/>
<path d="M843.202 926.075L865.413 925.24V896.85H886.789V924.405L895.64 924.071V931.085H819.655V926.075L865.413 855.601V855.1H886.789V891.84H865.413V864.619L825.667 926.075H843.202ZM886.789 936.095V972H865.413V936.095H886.789ZM982.846 874.305C982.846 869.518 981.733 865.955 979.506 863.617C977.28 861.279 973.717 860.11 968.818 860.11H951.116C946.552 860.11 943.045 861.223 940.595 863.45C938.257 865.565 937.088 869.017 937.088 873.804V891.005H915.712V873.637C915.712 869.852 916.325 866.79 917.549 864.452C918.885 862.003 920.555 860.11 922.559 858.774C924.563 857.327 926.846 856.38 929.406 855.935C931.967 855.378 934.528 855.1 937.088 855.1H982.846C989.415 855.1 994.592 856.547 998.377 859.442C1002.27 862.337 1004.22 867.291 1004.22 874.305V891.005H982.846V874.305ZM937.088 930.25H915.712V896.015H937.088V930.25ZM1004.06 930.25H982.679L982.846 896.015H1004.22L1004.06 930.25ZM982.679 935.26H1004.06V952.795C1004.06 959.809 1002.11 964.763 998.21 967.658C994.425 970.553 989.248 972 982.679 972H937.088C934.528 972 931.967 971.777 929.406 971.332C926.846 970.775 924.563 969.829 922.559 968.493C920.555 967.046 918.885 965.153 917.549 962.815C916.325 960.366 915.712 957.248 915.712 953.463V935.26H937.088V953.296C937.088 958.083 938.257 961.59 940.595 963.817C943.045 965.932 946.552 966.99 951.116 966.99H968.651C973.55 966.99 977.113 965.821 979.339 963.483C981.566 961.145 982.679 957.582 982.679 952.795V935.26ZM1047.87 926.075L1070.09 925.24V896.85H1091.46V924.405L1100.31 924.071V931.085H1024.33V926.075L1070.09 855.601V855.1H1091.46V891.84H1070.09V864.619L1030.34 926.075H1047.87ZM1091.46 936.095V972H1070.09V936.095H1091.46Z" fill="#241616"/>
<path d="M538 882L128.5 642L327.5 354L0 106.5" stroke="#241616" stroke-width="10"/>
<path d="M188.5 254.5L404 56L655.5 128L770 296.5" stroke="#241616" stroke-width="10"/>
<path d="M1613 441L1476 282.5L1759 192L1656.5 2" stroke="#241616" stroke-width="10"/>
<path d="M1749.5 690L1410 890L1600.5 1068" stroke="#241616" stroke-width="10"/>
<path d="M1479 850L1135.5 609.5L1093 710L873.5 746.5" stroke="#241616" stroke-width="10"/>
<path d="M574 820.5L672.5 880L660 1076" stroke="#241616" stroke-width="10"/>
</g>
<defs>
<clipPath id="clip0_1872_21180">
<rect width="1920" height="1065" fill="white"/>
</clipPath>
<clipPath id="clip1_1872_21180">
<rect width="828" height="656" fill="white" transform="translate(557 46)"/>
</clipPath>
</defs>
</svg>
