<svg width="1024" height="1366" viewBox="0 0 1024 1366" fill="none" xmlns="http://www.w3.org/2000/svg">
<g clip-path="url(#clip0_1983_49644)">
<rect width="1024" height="1366" fill="#F7F5E3"/>
<path d="M27 412L-8.5 524V-12H65.5L230 160L148.5 246L238.5 342.5L177.5 506.5L27 412Z" fill="#7F1F2F"/>
<path d="M340.5 183.5L452.5 -9.5H527L549.5 123.5L707 202L614 268.5L821 408L582.5 503.5L502 362.5L441 238L340.5 183.5Z" fill="#5E83E6"/>
<path d="M853 99L846.5 -7.5H1031V121L910.5 209L823.5 121L853 99Z" fill="#7F1F2F"/>
<path d="M918.5 789.5L1037.5 708V1377H953.5L970 1196L805 995L953.5 863L918.5 789.5Z" fill="#5E83E6"/>
<path d="M328 1288L223.5 1375.5H-7.5V802L201.5 889L255.5 1115L136 1125L328 1288Z" fill="#D9D9D9"/>
<path d="M328 1288L223.5 1375.5H-7.5V802L201.5 889L255.5 1115L136 1125L328 1288Z" fill="#7F1F2F"/>
<g clip-path="url(#clip1_1983_49644)">
<path d="M517.617 486.742C520.921 488.316 530.327 508.554 532.561 513.017C568.176 585.362 587.538 664.619 589.301 745.233C591.002 816.241 571.701 905.917 521.68 958.71C435.583 1049.58 321.125 1008.09 242.956 932.768C165.301 855.403 118.798 753.149 100.787 645.414C99.536 637.934 98.73 630.545 98 622.999C241.503 645.395 402.064 595.194 508.199 495.769C511.364 492.804 514.491 489.753 517.617 486.742Z" fill="#241616"/>
<path d="M312.278 588.484L290.047 770.545L400.732 799.628L367.148 929.339L440.465 988.669L400.732 1089.88" stroke="#F7F5E3" stroke-width="10"/>
<path d="M304.951 590.944L396.841 749.678L502.72 706.241L554.021 830.019L648.282 833.232L677.511 937.959" stroke="#F7F5E3" stroke-width="10"/>
<path d="M498.717 823.197L500.547 823.125C501.16 823.469 501.963 823.668 501.973 824.405C502.213 843.252 495.42 864.233 485.48 879.693C470.757 902.12 447.757 917.807 421.503 923.334C388.224 930.429 358.768 924.631 330.342 906.333C322.442 900.867 315.097 894.077 308.617 887.009L311.845 883.606C318.948 884.681 326.086 885.507 333.247 886.084C385.441 889.831 445.006 877.858 482.692 838.845C487.444 833.929 492.888 828.153 498.023 823.779L498.717 823.197Z" fill="#F7F5E3"/>
<path d="M464.947 637.325C492.258 635.324 522.534 650.45 531.003 677.699C532.206 681.564 533.742 688.122 531.752 691.747C531.408 691.947 531.059 692.141 530.71 692.34C527.389 690.916 520.078 686.359 517.323 684.757C498.389 673.754 474.525 673.416 453.548 678.065C437.775 682.557 423.008 689.857 410.278 700.256C407.894 702.207 402.075 707.927 399.493 707.939C398.4 706.863 397.869 706.154 397.827 704.491C396.832 665.126 429.014 640.882 464.947 637.325Z" fill="#F7F5E3"/>
<path d="M273.294 695.533C281.088 694.962 288.922 695.738 296.452 697.828C309.679 701.409 322.35 709.413 329.98 721.331C331.147 723.149 331.322 724.585 330.73 726.542C326.953 727.057 312.206 725.727 306.696 726.065C276.911 727.922 253.367 737.561 233.251 759.396C224.581 769.584 220.902 779.65 216.122 791.873C208.882 786.668 205.242 776.147 204.741 767.539C202.401 727.312 235.764 698.721 273.294 695.533Z" fill="#F7F5E3"/>
<path d="M494.642 354.812C499.996 358.261 511.38 369.287 517.173 374.013C533.392 387.297 550.426 399.558 568.164 410.725C655.363 465.469 756.885 493.022 859.793 489.873C878.95 489.245 906.998 487.283 925.645 483.044C925.213 492.605 923.628 501.675 922.447 511.059C919.698 532.965 915.319 552.242 909.831 573.405C886.749 662.394 841.856 749.454 774.407 813.029C731.786 853.194 674.342 886.115 613.873 884.817C608.268 884.701 580.364 882.046 577.482 879.003L577.826 877.506C592.404 839.486 597.487 809.132 601.284 768.534C639.859 777.741 666.105 794.83 692.962 823.123C693.605 823.799 694.819 823.305 695.606 823.139C696.399 822.347 697.158 821.36 697.08 820.151C693.621 766.605 654.154 727.044 601.528 722.493C599.865 691.196 595.674 660.084 588.995 629.462C585.863 615.53 581.528 601.734 578.125 587.799C595.336 587.507 612.625 583.417 625.635 571.622C631.223 566.556 635.33 561.954 637.398 554.537C619.216 554.258 602.315 558.018 583.945 551.791C579.101 550.148 565.897 546.815 562.892 542.325C556.335 532.536 553.38 519.961 547.71 509.53C539.844 493.052 532.272 479.422 523.431 463.707C502.384 484.447 482.364 502.658 458.168 519.743C450.302 525.297 443.828 530.232 435.234 534.82C443.473 481.153 459.296 428.929 482.23 379.715C485.916 371.894 490.337 362.149 494.642 354.812Z" fill="#241616"/>
<path d="M688.277 460.338L581.916 503.313L489.999 340.999" stroke="#5E83E6" stroke-width="10"/>
<path d="M867.033 697.315L836.451 590.731L741.323 586.486L688.275 460.338" stroke="#F7F5E3" stroke-width="10"/>
<path d="M589.519 755.384L762.743 698.711L741.855 586.134L872.813 561.838L895.018 470.362L1002.95 463.664" stroke="#F7F5E3" stroke-width="10"/>
<path d="M704.384 576.836C706.718 577.416 714.173 584.244 716.651 586.058C746.462 607.865 786.81 617.131 820.95 599.792C824.814 597.831 835.629 590.342 838.201 590.164C844.636 595.912 833.866 616.089 829.98 621.71L829.337 622.543C818.783 636.265 801.838 644.732 784.826 646.894C764.261 649.625 743.463 643.975 727.105 631.213C713.076 620.372 704.113 604.247 702.311 586.611C701.862 582.416 701.79 579.974 704.384 576.836Z" fill="#F7F5E3"/>
</g>
<path d="M919.5 790.5L1043.5 701.5" stroke="#241616" stroke-width="10"/>
<path d="M864.5 691.5L952 862L803.5 994.5L970 1194L954 1368" stroke="#241616" stroke-width="10"/>
<path d="M434 1005L401 1103.5L136.5 1125.5L329.5 1288L153 1431" stroke="#241616" stroke-width="10"/>
<path d="M889 490.5L903.5 350.5L998 298L822 122" stroke="#241616" stroke-width="10"/>
<path d="M681.5 463.5L823.5 406.5L613 269.5L853.5 99L841.5 -61.5" stroke="#241616" stroke-width="10"/>
<path d="M298 403.5L281 276L474.5 306.5" stroke="#241616" stroke-width="10"/>
<path d="M501.5 364L441.5 238L340 185L454.5 -16" stroke="#241616" stroke-width="10"/>
<path d="M312.5 608.5L321.5 427.5L148 248L229.5 161L58.5 -16.5" stroke="#241616" stroke-width="10"/>
<path d="M395.202 1230.07L417.413 1229.24V1200.85H438.789V1228.4L447.64 1228.07V1235.08H371.655V1230.07L417.413 1159.6V1159.1H438.789V1195.84H417.413V1168.62L377.667 1230.07H395.202ZM438.789 1240.09V1276H417.413V1240.09H438.789ZM534.846 1178.3C534.846 1173.52 533.733 1169.95 531.506 1167.62C529.28 1165.28 525.717 1164.11 520.818 1164.11H503.116C498.552 1164.11 495.045 1165.22 492.595 1167.45C490.257 1169.57 489.088 1173.02 489.088 1177.8V1195H467.712V1177.64C467.712 1173.85 468.325 1170.79 469.549 1168.45C470.885 1166 472.555 1164.11 474.559 1162.77C476.563 1161.33 478.846 1160.38 481.406 1159.93C483.967 1159.38 486.528 1159.1 489.088 1159.1H534.846C541.415 1159.1 546.592 1160.55 550.377 1163.44C554.274 1166.34 556.222 1171.29 556.222 1178.3V1195H534.846V1178.3ZM489.088 1234.25H467.712V1200.01H489.088V1234.25ZM556.055 1234.25H534.679L534.846 1200.01H556.222L556.055 1234.25ZM534.679 1239.26H556.055V1256.79C556.055 1263.81 554.107 1268.76 550.21 1271.66C546.425 1274.55 541.248 1276 534.679 1276H489.088C486.528 1276 483.967 1275.78 481.406 1275.33C478.846 1274.78 476.563 1273.83 474.559 1272.49C472.555 1271.05 470.885 1269.15 469.549 1266.81C468.325 1264.37 467.712 1261.25 467.712 1257.46V1239.26H489.088V1257.3C489.088 1262.08 490.257 1265.59 492.595 1267.82C495.045 1269.93 498.552 1270.99 503.116 1270.99H520.651C525.55 1270.99 529.113 1269.82 531.339 1267.48C533.566 1265.14 534.679 1261.58 534.679 1256.79V1239.26ZM599.875 1230.07L622.086 1229.24V1200.85H643.462V1228.4L652.313 1228.07V1235.08H576.328V1230.07L622.086 1159.6V1159.1H643.462V1195.84H622.086V1168.62L582.34 1230.07H599.875ZM643.462 1240.09V1276H622.086V1240.09H643.462Z" fill="#241616"/>
<path d="M236.5 344L174.5 506.5L25.5 408.5L-35 625.5" stroke="#241616" stroke-width="10"/>
<path d="M702 200.5L549.5 125L523 -43.5" stroke="#241616" stroke-width="10"/>
<path d="M911.5 206L1079 92" stroke="#241616" stroke-width="10"/>
<path d="M255 1113.5L201.5 889.5L-17.5 798" stroke="#241616" stroke-width="10"/>
<path d="M897 1105L803 1172.5L642.5 967L423 1044.5" stroke="#241616" stroke-width="10"/>
</g>
<defs>
<clipPath id="clip0_1983_49644">
<rect width="1024" height="1366" fill="white"/>
</clipPath>
<clipPath id="clip1_1983_49644">
<rect width="828" height="656" fill="white" transform="translate(98 355)"/>
</clipPath>
</defs>
</svg>
