<svg width="64" height="64" viewBox="0 0 64 64" fill="none" xmlns="http://www.w3.org/2000/svg">
<circle cx="32" cy="32" r="32" fill="#5E83E6"/>
<path d="M22.4312 25.7358V23.5539H23.7006V25.7358H22.4312ZM20.3188 25.7358H19.0494V23.5539H20.3188V25.7358ZM15.6676 25.7358V23.5539H16.937V25.7358H15.6676ZM23.7006 26.0333V28.0663H22.4312V26.0333H23.7006ZM20.3188 28.0663H19.0494V26.0333H20.3188V28.0663ZM15.6676 28.0663V26.0333H16.937V28.0663H15.6676ZM16.937 28.3639V30.1986H19.0494V28.3639H20.3188V30.1986H22.4312V28.3639H23.7006V30.4961H15.6676V28.3639H16.937ZM25.9587 28.0168H24.6893V25.9837H25.9587V26.906H27.1785L27.4761 26.0333L28.3785 23.5539H29.0529L27.4463 26.906L28.1802 26.8961C28.2529 27.0944 28.319 27.2862 28.3785 27.4713C28.4446 27.6498 28.5108 27.8283 28.5769 28.0068H27.3075L27.0298 27.2035H25.9587V28.0168ZM24.6893 25.6862V23.5539H25.9587V25.6862H24.6893ZM29.4595 30.4862H28.1901L27.4165 28.3044H28.6761C28.7884 28.6151 28.9042 28.9424 29.0232 29.2862C29.1488 29.63 29.2942 30.03 29.4595 30.4862ZM24.6893 28.3143H25.9587V30.4961H24.6893V28.3143ZM34.576 24.6944C34.576 24.4101 34.5099 24.1986 34.3777 24.0597C34.2455 23.9209 34.0339 23.8515 33.743 23.8515H32.414C32.143 23.8515 31.9347 23.9176 31.7893 24.0498C31.6504 24.1754 31.581 24.3804 31.581 24.6647V25.6862H30.3116V24.6548C30.3116 24.43 30.3479 24.2482 30.4207 24.1093C30.5 23.9639 30.5992 23.8515 30.7182 23.7721C30.8372 23.6862 30.9727 23.63 31.1248 23.6035C31.2769 23.5705 31.4289 23.5539 31.581 23.5539H34.576C34.9661 23.5539 35.2735 23.6399 35.4983 23.8118C35.7297 23.9837 35.8455 24.2779 35.8455 24.6944V25.6862H34.576V24.6944ZM35.8355 28.0168H34.5661L34.576 25.9837H35.8455L35.8355 28.0168ZM31.581 28.0168H30.3116V25.9837H31.581V28.0168ZM34.5661 28.3143H35.8355V29.3556C35.8355 29.7721 35.7198 30.0663 35.4884 30.2382C35.2636 30.4101 34.9562 30.4961 34.5661 30.4961H31.581C31.4289 30.4961 31.2769 30.4829 31.1248 30.4564C30.9727 30.4234 30.8372 30.3672 30.7182 30.2878C30.5992 30.2019 30.5 30.0895 30.4207 29.9506C30.3479 29.8052 30.3116 29.6201 30.3116 29.3953V28.3143H31.581V29.3853C31.581 29.6696 31.6504 29.8779 31.7893 30.0101C31.9347 30.1358 32.143 30.1986 32.414 30.1986H33.7331C34.024 30.1986 34.2355 30.1292 34.3678 29.9903C34.5 29.8515 34.5661 29.6399 34.5661 29.3556V28.3143ZM38.5007 25.9837C38.4412 26.1622 38.375 26.3539 38.3023 26.5589C38.2296 26.7572 38.1536 26.9622 38.0742 27.1738C38.0015 27.3787 37.9288 27.5804 37.856 27.7787C37.7899 27.9771 37.7271 28.1556 37.6676 28.3143L36.8742 30.4961H36.1998C36.2924 30.2779 36.3784 30.0829 36.4577 29.911C36.537 29.7325 36.6131 29.5606 36.6858 29.3953C36.7651 29.2234 36.8445 29.0449 36.9238 28.8597C37.0098 28.6746 37.1056 28.4663 37.2114 28.2349C37.4098 27.7721 37.5883 27.3556 37.747 26.9853C37.9122 26.6085 38.0676 26.2415 38.2131 25.8845C38.3585 25.5275 38.504 25.1606 38.6494 24.7837C38.7949 24.4068 38.9536 23.987 39.1255 23.5242H39.4031C39.4164 23.544 39.423 23.5672 39.423 23.5936C39.4296 23.6134 39.4395 23.6366 39.4527 23.663L39.5519 23.9308C39.5585 23.9374 39.5618 23.9506 39.5618 23.9705L39.5916 24.03C39.5916 24.0432 39.5916 24.0531 39.5916 24.0597C39.5982 24.0597 39.6015 24.063 39.6015 24.0696L39.9883 25.1407C40.0213 25.2333 40.0544 25.3258 40.0874 25.4184C40.1205 25.5044 40.1536 25.5936 40.1866 25.6862H38.937L38.7684 25.23V25.2399L38.7585 25.2498V25.2597L38.7387 25.3093V25.3192L38.7288 25.3291V25.3391L38.6494 25.5771C38.6494 25.5837 38.6461 25.5936 38.6395 25.6068C38.6329 25.6201 38.6263 25.6366 38.6197 25.6564L38.5304 25.9044C38.5238 25.9242 38.5172 25.9407 38.5106 25.9539C38.504 25.9672 38.5007 25.9771 38.5007 25.9837ZM40.2957 25.9837C40.4147 26.3209 40.537 26.6614 40.6627 27.0052C40.7883 27.3424 40.9139 27.6796 41.0395 28.0168H39.78L39.0461 25.9837H40.2957ZM41.1486 28.3143L41.9519 30.4961H40.6825L39.8891 28.3143H41.1486ZM43.6452 30.4961H42.9411L44.875 25.6862L45.6684 23.5242H45.9857C45.9989 23.544 46.0056 23.5672 46.0056 23.5936C46.0122 23.6134 46.0221 23.6366 46.0353 23.663L46.1345 23.9308C46.1411 23.9374 46.1444 23.9506 46.1444 23.9705L46.1741 24.03C46.1741 24.0432 46.1741 24.0531 46.1741 24.0597C46.1808 24.0597 46.1841 24.063 46.1841 24.0696L46.5708 25.1407C46.6039 25.2333 46.637 25.3258 46.67 25.4184C46.7031 25.5044 46.7361 25.5936 46.7692 25.6862H45.5196L45.351 25.2101C45.2849 25.3754 45.2254 25.5341 45.1725 25.6862C45.113 25.8647 45.0502 26.0465 44.9841 26.2316C44.9179 26.4168 44.8551 26.5986 44.7956 26.7771C44.7361 26.9556 44.6766 27.1275 44.6171 27.2928C44.5642 27.4515 44.5179 27.5936 44.4783 27.7192H46.2535L45.6287 25.9837H46.8783C46.9973 26.3209 47.1196 26.6614 47.2452 27.0052C47.3708 27.3424 47.4965 27.6796 47.6221 28.0168H44.3593L43.6452 30.4961ZM47.7312 28.3143L48.5345 30.4961H47.2651L46.4717 28.3143H47.7312ZM10.392 33.1093L7.40684 39.4961H6.13742V37.3143H7.40684V38.9209L10.392 32.5539H11.6614V34.6862H10.392V33.1093ZM6.13742 32.5539H7.40684V34.6862H6.13742V32.5539ZM10.392 37.0168V34.9837H11.6614V37.0168H10.392ZM6.13742 37.0168V34.9837H7.40684V37.0168H6.13742ZM11.6614 37.3143V39.4961H10.392V37.3143H11.6614ZM17.9367 32.5539H18.8987L18.9284 34.6862H17.6292L15.8838 39.4961H14.9416L14.1482 37.3143H15.4077L15.8739 38.5936L17.9367 32.5539ZM13.1962 39.4961H12.6011L12.8987 32.5539H13.6722C13.6854 32.5738 13.692 32.5969 13.692 32.6234C13.6987 32.6432 13.7086 32.663 13.7218 32.6829L13.8111 32.9407C13.8243 32.9606 13.8309 32.9804 13.8309 33.0002C13.8375 33.0201 13.8474 33.0432 13.8606 33.0696L14.2474 34.1407C14.2805 34.2333 14.3135 34.3258 14.3466 34.4184C14.3796 34.5044 14.4127 34.5936 14.4458 34.6862H13.1962V39.4961ZM17.6292 34.9837H18.9383L18.9681 37.0168H17.6292V34.9837ZM14.5549 34.9837C14.6739 35.3209 14.7962 35.6614 14.9218 36.0052C15.0474 36.3424 15.173 36.6796 15.2987 37.0168H14.0392L13.3053 34.9837H14.5549ZM18.978 37.3143L19.0077 39.4961H17.6292V37.3143H18.978ZM19.9969 32.5539H25.5209V34.6862H24.2515V32.8515H21.2663V34.6862H19.9969V32.5539ZM24.2515 37.0168V34.9837H25.5209V37.0168H24.2515ZM19.9969 37.0168V34.9837H21.2663V37.0168H19.9969ZM21.2663 37.3143V39.4961H19.9969V37.3143H21.2663ZM25.5209 37.3143V39.4961H24.2515V37.3143H25.5209ZM26.5102 32.5539H27.7797V34.6862H26.5102V32.5539ZM30.7648 32.5539H32.0342V34.6862H30.7648V32.5539ZM30.7648 34.9837H32.0342V37.0168H27.7797C27.6276 37.0168 27.4755 37.0035 27.3235 36.9771C27.1714 36.944 27.0359 36.8878 26.9168 36.8085C26.7978 36.7225 26.6987 36.6101 26.6193 36.4713C26.5466 36.3258 26.5102 36.1407 26.5102 35.9159V34.9837H27.7797V35.906C27.7797 36.1903 27.8491 36.3986 27.9879 36.5308C28.1334 36.6564 28.3416 36.7192 28.6127 36.7192H30.7648V34.9837ZM27.7797 39.4961C27.6276 39.4961 27.4755 39.4829 27.3235 39.4564C27.1714 39.4234 27.0359 39.3672 26.9168 39.2878C26.7978 39.2019 26.6987 39.0895 26.6193 38.9506C26.5466 38.8052 26.5102 38.6201 26.5102 38.3953V37.3143H27.7797V38.3853C27.7797 38.6696 27.8491 38.8779 27.9879 39.0101C28.1334 39.1358 28.3416 39.1986 28.6127 39.1986H29.9317C30.2028 39.1986 30.4078 39.1358 30.5466 39.0101C30.6921 38.8779 30.7648 38.6696 30.7648 38.3853V37.3143H32.0342V38.3953C32.0342 38.6201 31.9945 38.8052 31.9152 38.9506C31.8425 39.0895 31.7466 39.2019 31.6276 39.2878C31.5086 39.3672 31.373 39.4234 31.221 39.4564C31.0689 39.4829 30.9168 39.4961 30.7648 39.4961H27.7797ZM34.6897 34.9837C34.6301 35.1622 34.564 35.3539 34.4913 35.5589C34.4186 35.7572 34.3425 35.9622 34.2632 36.1738C34.1905 36.3787 34.1178 36.5804 34.045 36.7787C33.9789 36.9771 33.9161 37.1556 33.8566 37.3143L33.0632 39.4961H32.3888C32.4814 39.2779 32.5673 39.0829 32.6467 38.911C32.726 38.7325 32.802 38.5606 32.8748 38.3953C32.9541 38.2234 33.0335 38.0449 33.1128 37.8597C33.1987 37.6746 33.2946 37.4663 33.4004 37.2349C33.5987 36.7721 33.7773 36.3556 33.9359 35.9853C34.1012 35.6085 34.2566 35.2415 34.402 34.8845C34.5475 34.5275 34.693 34.1606 34.8384 33.7837C34.9839 33.4068 35.1425 32.987 35.3144 32.5242H35.5921C35.6054 32.544 35.612 32.5672 35.612 32.5936C35.6186 32.6134 35.6285 32.6366 35.6417 32.663L35.7409 32.9308C35.7475 32.9374 35.7508 32.9506 35.7508 32.9705L35.7806 33.03C35.7806 33.0432 35.7806 33.0531 35.7806 33.0597C35.7872 33.0597 35.7905 33.063 35.7905 33.0696L36.1773 34.1407C36.2103 34.2333 36.2434 34.3258 36.2764 34.4184C36.3095 34.5044 36.3425 34.5936 36.3756 34.6862H35.126L34.9574 34.23V34.2399L34.9475 34.2498V34.2597L34.9277 34.3093V34.3192L34.9178 34.3291V34.3391L34.8384 34.5771C34.8384 34.5837 34.8351 34.5936 34.8285 34.6068C34.8219 34.6201 34.8153 34.6366 34.8087 34.6564L34.7194 34.9044C34.7128 34.9242 34.7062 34.9407 34.6996 34.9539C34.693 34.9672 34.6897 34.9771 34.6897 34.9837ZM36.4847 34.9837C36.6037 35.3209 36.726 35.6614 36.8516 36.0052C36.9773 36.3424 37.1029 36.6796 37.2285 37.0168H35.969L35.2351 34.9837H36.4847ZM37.3376 37.3143L38.1409 39.4961H36.8715L36.0781 37.3143H37.3376ZM39.1301 34.7358V32.5539H40.3995V34.7358H39.1301ZM39.1301 35.0333H43.3846C43.5367 35.0333 43.6888 35.0498 43.8408 35.0829C43.9929 35.1093 44.1284 35.1655 44.2474 35.2515C44.3664 35.3308 44.4623 35.4432 44.535 35.5887C44.6144 35.7275 44.654 35.9093 44.654 36.1341V37.0663H43.3846V36.144C43.3846 35.8597 43.3119 35.6548 43.1664 35.5291C43.0276 35.3969 42.8226 35.3308 42.5516 35.3308H40.3995V37.0663H39.1301V35.0333ZM39.1301 39.4961V37.3639H40.3995V39.1986H42.5516C42.8226 39.1986 43.0276 39.1358 43.1664 39.0101C43.3119 38.8779 43.3846 38.6696 43.3846 38.3853V37.3639H44.654V38.3953C44.654 38.6201 44.6144 38.8052 44.535 38.9506C44.4623 39.0895 44.3664 39.2019 44.2474 39.2878C44.1284 39.3672 43.9929 39.4234 43.8408 39.4564C43.6888 39.4829 43.5367 39.4961 43.3846 39.4961H39.1301ZM45.6434 34.6862V33.6548C45.6434 33.43 45.6797 33.2482 45.7525 33.1093C45.8318 32.9639 45.931 32.8515 46.05 32.7721C46.169 32.6862 46.3045 32.63 46.4566 32.6035C46.6087 32.5705 46.7607 32.5539 46.9128 32.5539H49.9078C50.0599 32.5539 50.212 32.5705 50.364 32.6035C50.5161 32.63 50.6516 32.6862 50.7706 32.7721C50.8897 32.8515 50.9855 32.9639 51.0583 33.1093C51.1376 33.2482 51.1773 33.43 51.1773 33.6548V34.6862H49.9078V33.6647C49.9078 33.3804 49.8351 33.1754 49.6897 33.0498C49.5508 32.9176 49.3459 32.8515 49.0748 32.8515H47.7459C47.4748 32.8515 47.2665 32.9176 47.1211 33.0498C46.9822 33.1754 46.9128 33.3804 46.9128 33.6647V34.6862H45.6434ZM45.6434 34.9837H46.9128V37.0168H45.6434V34.9837ZM45.6434 37.3143H46.9128V38.3853C46.9128 38.6696 46.9822 38.8779 47.1211 39.0101C47.2665 39.1358 47.4748 39.1986 47.7459 39.1986H49.164C49.4549 39.1986 49.6665 39.1292 49.7987 38.9903C49.931 38.8515 49.9971 38.6399 49.9971 38.3556H50.007L49.9971 37.3143H51.2665L51.2764 38.3556H51.2665C51.2665 38.7721 51.1508 39.0663 50.9194 39.2382C50.6946 39.4101 50.3872 39.4961 49.9971 39.4961H46.9128C46.7607 39.4961 46.6087 39.4829 46.4566 39.4564C46.3045 39.4234 46.169 39.3672 46.05 39.2878C45.931 39.2019 45.8318 39.0895 45.7525 38.9506C45.6797 38.8052 45.6434 38.6201 45.6434 38.3953V37.3143ZM52.977 39.4961H52.2729L54.2068 34.6862L55.0002 32.5242H55.3175C55.3308 32.544 55.3374 32.5672 55.3374 32.5936C55.344 32.6134 55.3539 32.6366 55.3671 32.663L55.4663 32.9308C55.4729 32.9374 55.4762 32.9506 55.4762 32.9705L55.506 33.03C55.506 33.0432 55.506 33.0531 55.506 33.0597C55.5126 33.0597 55.5159 33.063 55.5159 33.0696L55.9027 34.1407C55.9357 34.2333 55.9688 34.3258 56.0018 34.4184C56.0349 34.5044 56.0679 34.5936 56.101 34.6862H54.8514L54.6828 34.2101C54.6167 34.3754 54.5572 34.5341 54.5043 34.6862C54.4448 34.8647 54.382 35.0465 54.3159 35.2316C54.2498 35.4168 54.1869 35.5986 54.1274 35.7771C54.0679 35.9556 54.0084 36.1275 53.9489 36.2928C53.896 36.4515 53.8498 36.5936 53.8101 36.7192H55.5853L54.9605 34.9837H56.2101C56.3291 35.3209 56.4514 35.6614 56.577 36.0052C56.7027 36.3424 56.8283 36.6796 56.9539 37.0168H53.6911L52.977 39.4961ZM57.063 37.3143L57.8663 39.4961H56.5969L55.8035 37.3143H57.063Z" fill="#F7F5E3"/>
</svg>
