<svg width="758" height="618" viewBox="0 0 758 618" fill="none" xmlns="http://www.w3.org/2000/svg">
<path d="M291.996 178.246L448.57 449.459L156.726 617.946C155.849 616.763 152.895 611.411 152.039 609.929L142.221 592.911L109.091 535.529L0.0775221 346.712L191.296 236.297L258.303 197.609L279.955 185.104C283.626 182.982 288.276 180.098 291.996 178.246Z" fill="#5E83E6"/>
<path d="M202.216 547.427C204.317 550.716 213.309 565.574 213.73 568.574C213.8 569.081 213.721 569.342 213.429 569.724C212.058 571.502 199.975 578.433 197.772 578.571C197.169 578.609 195.978 577.257 195.471 576.804C193.442 573.648 183.99 558.045 183.838 555.309C183.808 554.746 184.124 554.286 184.48 553.896C185.534 552.74 196.322 546.496 198.133 545.765C198.83 545.483 199.531 545.485 200.279 545.482L202.216 547.427Z" fill="#F7F5E3"/>
<path d="M167.657 568.538C168.899 570.436 170.83 573.877 171.961 575.903C174.445 580.354 177.463 584.544 178.852 589.393C177.286 591.751 165.036 598.642 162.116 598.902C161.73 598.346 160.537 597.09 160.001 596.455C156.481 590.739 153.012 584.44 149.728 578.551C149.249 577.363 148.165 575.102 149.408 574.199C152.009 572.307 162.22 565.64 164.926 565.721C166.047 566.27 166.911 567.526 167.657 568.538Z" fill="#F7F5E3"/>
<path d="M73.8489 325.068C75.8748 328.189 84.8051 343.108 85.1558 345.816C85.2479 346.527 84.969 346.984 84.5153 347.478C82.8987 349.24 71.2735 355.934 69.1679 355.897C68.469 355.884 67.5506 354.738 67.0158 354.221C64.8625 351.074 63.041 347.602 61.1285 344.3C59.4834 341.458 57.5818 338.568 56.2293 335.58C55.7708 334.569 55.3507 333.45 55.3117 332.342C55.2992 331.999 55.711 331.582 55.9358 331.356C57.3664 329.918 69.5258 322.642 71.2329 322.816C72.2076 322.915 73.2322 324.365 73.8489 325.068Z" fill="#F7F5E3"/>
<path d="M273.326 507.262C275.633 510.828 277.67 514.842 279.882 518.494C281.833 521.713 283.646 524.652 284.619 528.306C282.854 531.132 273.316 535.394 270.201 537.4C269.858 537.621 268.574 537.751 268.112 537.794C267.169 536.798 266.714 536.556 265.817 535.353C263.822 532.177 254.826 517.325 254.559 514.513C254.503 513.932 254.904 513.406 255.263 513.018C256.268 511.93 267.374 505.471 269.057 504.847C269.642 504.632 270.318 504.651 270.94 504.646C272.042 505.656 272.445 506.068 273.326 507.262Z" fill="#F7F5E3"/>
<path d="M344.146 466.576C346.196 469.752 354.734 483.965 355.182 486.899C355.275 487.511 355.074 487.869 354.706 488.317C353.648 489.605 343.233 495.551 341.297 496.383C340.427 496.758 339.688 496.938 338.726 496.959C337.655 495.868 337.239 495.408 336.352 494.17C333.728 490.136 331.41 485.485 328.875 481.358C327.696 479.439 325.281 475.321 325.265 473.218C326.26 471.235 339.353 463.624 341.514 463.834C342.585 464.375 343.429 465.607 344.146 466.576Z" fill="#F7F5E3"/>
<path d="M415.045 426.01C417.217 429.759 425.301 442.623 425.829 445.914C425.936 446.583 425.699 447.044 425.295 447.535C424.2 448.872 413.564 454.951 411.596 455.737C410.883 456.019 410.201 456.082 409.437 456.109C408.489 455.159 407.972 454.581 407.132 453.531L400.494 442.107C398.923 439.4 396.219 435.388 395.957 432.354C397.1 430.188 402.809 427.667 404.934 426.267C406.242 425.406 410.774 422.703 412.251 423.017C413.357 423.621 414.342 424.964 415.045 426.01Z" fill="#F7F5E3"/>
<path d="M378.932 445.88C381.602 449.931 383.856 454.547 386.417 458.688C388.176 461.531 389.465 463.954 390.478 467.138C389.036 469.329 376.784 476.5 374.15 476.653C373.178 476.36 372.544 475.417 371.894 474.604C369.759 471.396 360.705 456.442 360.396 453.493C360.331 452.876 360.638 452.405 361.016 451.973C362.074 450.765 372.74 444.659 374.616 443.893C375.313 443.609 376.018 443.561 376.768 443.522C377.616 444.371 378.17 444.957 378.932 445.88Z" fill="#F7F5E3"/>
<path d="M39.1398 345.935C41.1355 348.996 49.5652 363.179 50.1122 366.048C50.2354 366.69 50.1314 366.995 49.7331 367.469C48.2562 369.23 36.1667 376.202 34.0408 376.175C33.3189 376.167 32.1791 374.666 31.621 374.121C29.3145 370.148 21.1272 357.046 20.3794 353.665C20.2323 353 20.1886 352.469 20.5838 351.912C21.5679 350.524 32.4289 344.334 34.5063 343.445C35.1625 343.164 35.8455 343.056 36.5536 342.962C37.6687 344.096 38.2109 344.636 39.1398 345.935Z" fill="#F7F5E3"/>
<path d="M215.755 244.186C217.79 247.348 225.894 260.859 226.459 263.747C226.598 264.459 226.601 264.979 226.183 265.567C225.127 267.053 214.907 272.809 212.734 273.762C211.958 274.102 211.201 274.256 210.36 274.368C209.276 273.363 208.778 272.916 207.894 271.749C205.444 267.532 197.302 254.764 196.73 250.746C197.123 249.066 201.616 246.799 203.173 245.969C205.384 244.79 210.791 240.873 213.108 241.293C214.231 241.91 215.003 243.136 215.755 244.186Z" fill="#F7F5E3"/>
<path d="M144.64 284.38C146.992 287.99 149.074 292.108 151.318 295.817C153.21 298.941 155.141 302.047 156.056 305.588C155.788 306.099 155.51 306.531 155.087 306.918C153.479 308.385 141.718 315.284 139.978 315.06C138.848 314.916 138.01 313.658 137.345 312.803C135.244 309.539 126.638 295.199 126.045 292.188C125.929 291.599 126.057 291.317 126.397 290.868C127.901 288.879 139.782 282.24 142.145 281.979C142.93 282.157 144.074 283.699 144.64 284.38Z" fill="#F7F5E3"/>
<path d="M286.765 203.836C288.403 206.643 297.759 221.741 297.347 223.847C297.155 224.825 295.844 225.771 295.069 226.295C293.073 227.643 282.855 233.897 281.173 233.391C279.925 233.016 278.91 231.36 278.226 230.311C276.201 226.755 267.275 212.702 267.427 209.664C267.718 209.201 268.078 208.838 268.49 208.491C270.145 207.1 282.077 199.915 283.588 200.367C284.806 200.731 286.092 202.811 286.765 203.836Z" fill="#F7F5E3"/>
<path d="M250.597 223.578C252.473 226.434 261.593 241.632 261.693 244.144C261.717 244.751 261.409 245.146 261.026 245.565C259.474 247.261 250.514 252.282 248.129 253.348C247.317 253.711 246.492 254.003 245.586 254.023C244.565 253.679 243.906 252.654 243.244 251.785C241.188 248.732 232.189 233.688 231.815 230.877C231.738 230.304 232.004 229.966 232.355 229.567C233.941 227.766 245.739 221.014 247.904 220.904C249.003 221.322 249.859 222.62 250.597 223.578Z" fill="#F7F5E3"/>
<path d="M237.246 527.157C239.383 530.217 248.483 545.514 248.858 548.363C248.929 548.916 248.65 549.294 248.318 549.681C247.054 551.151 237 557.003 234.895 557.759C234.376 557.945 233.778 557.973 233.227 558.011C232.575 557.482 231.935 556.934 231.31 556.369C229.339 553.709 227.762 550.526 226.1 547.659C224.207 544.391 222.063 541.095 220.459 537.678C220.054 536.814 219.653 535.829 219.54 534.88C219.465 534.246 219.724 533.803 220.108 533.35C221.091 532.187 231.394 526.272 233.238 525.545C233.915 525.279 234.574 525.222 235.303 525.195C235.967 525.826 236.605 526.499 237.246 527.157Z" fill="#F7F5E3"/>
<path d="M108.564 304.256C110.805 307.631 119.747 322.502 120.263 325.56C120.36 326.138 120.225 326.467 119.881 326.893C118.544 328.546 106.993 335.362 105.049 335.397C104.137 335.413 103.502 334.548 102.921 333.919C100.919 331.342 91.2018 314.691 90.9456 312.091C90.8894 311.513 91.0654 311.172 91.4393 310.776C92.5625 309.584 102.908 303.628 104.783 302.895C105.454 302.632 106.062 302.586 106.779 302.59L108.564 304.256Z" fill="#F7F5E3"/>
<path d="M308.051 486.433C310.564 490.256 312.758 494.626 315.151 498.556C317.008 501.607 318.79 504.471 319.642 507.952C318.14 510.745 310.606 513.847 307.785 515.826C306.885 516.459 305.011 517.107 303.867 517.187C303.168 516.828 302.392 515.947 301.803 515.356C299.773 512.126 290.778 497.273 290.258 494.415C290.134 493.73 290.12 493.383 290.548 492.836C291.757 491.289 303.614 484.358 305.438 484.369C306.411 484.376 307.431 485.764 308.051 486.433Z" fill="#F7F5E3"/>
<path d="M179.482 263.763C181.706 267.171 183.748 270.971 185.801 274.504C187.882 278.086 190.211 281.389 191.072 285.444C189.311 288.325 181.057 291.903 177.896 293.878C175.655 295.279 174.781 294.333 173.165 292.557C171.176 289.457 162.112 274.418 161.709 271.662C161.605 270.949 161.767 270.498 162.226 269.975C163.356 268.688 173.471 262.897 175.412 262.103C176.118 261.814 176.777 261.765 177.535 261.757L179.482 263.763Z" fill="#F7F5E3"/>
<path d="M600.449 0.121376L757.023 271.334L465.179 439.821C464.303 438.638 461.348 433.286 460.492 431.804L450.674 414.786L417.544 357.404L308.531 168.587L499.749 58.1721L566.756 19.4843L588.408 6.97941C592.079 4.85727 596.729 1.97348 600.449 0.121376Z" fill="#5E83E6"/>
<path d="M510.669 369.306C512.77 372.594 521.762 387.453 522.183 390.453C522.254 390.96 522.174 391.221 521.882 391.603C520.512 393.381 508.429 400.312 506.225 400.45C505.623 400.487 504.431 399.135 503.924 398.683C501.895 395.527 492.443 379.924 492.291 377.188C492.261 376.625 492.577 376.165 492.934 375.775C493.987 374.619 504.775 368.375 506.587 367.644C507.283 367.362 507.984 367.364 508.732 367.361L510.669 369.306Z" fill="#F7F5E3"/>
<path d="M476.11 390.416C477.353 392.315 479.283 395.756 480.414 397.782C482.898 402.233 485.916 406.423 487.305 411.272C485.74 413.63 473.49 420.521 470.569 420.781C470.183 420.225 468.99 418.969 468.454 418.334C464.934 412.618 461.465 406.319 458.182 400.43C457.702 399.242 456.618 396.981 457.861 396.078C460.462 394.186 470.673 387.519 473.38 387.6C474.5 388.149 475.365 389.405 476.11 390.416Z" fill="#F7F5E3"/>
<path d="M382.302 146.947C384.328 150.068 393.258 164.987 393.609 167.695C393.701 168.406 393.422 168.863 392.968 169.357C391.352 171.119 379.727 177.813 377.621 177.776C376.922 177.763 376.004 176.616 375.469 176.1C373.316 172.953 371.494 169.481 369.582 166.179C367.937 163.337 366.035 160.447 364.682 157.459C364.224 156.448 363.804 155.329 363.765 154.221C363.752 153.878 364.164 153.461 364.389 153.235C365.82 151.797 377.979 144.521 379.686 144.695C380.661 144.794 381.685 146.244 382.302 146.947Z" fill="#F7F5E3"/>
<path d="M581.78 329.141C584.086 332.707 586.123 336.721 588.335 340.373C590.286 343.592 592.099 346.531 593.072 350.185C591.308 353.011 581.769 357.273 578.655 359.279C578.311 359.5 577.027 359.63 576.565 359.673C575.622 358.677 575.167 358.435 574.27 357.232C572.276 354.056 563.279 339.204 563.012 336.392C562.956 335.811 563.357 335.285 563.716 334.896C564.721 333.809 575.827 327.35 577.51 326.726C578.095 326.511 578.771 326.53 579.393 326.525C580.495 327.535 580.899 327.947 581.78 329.141Z" fill="#F7F5E3"/>
<path d="M652.599 288.459C654.649 291.634 663.187 305.848 663.635 308.782C663.728 309.394 663.527 309.752 663.159 310.2C662.101 311.488 651.686 317.433 649.75 318.265C648.88 318.641 648.141 318.821 647.179 318.842C646.109 317.75 645.692 317.291 644.805 316.053C642.181 312.018 639.863 307.367 637.328 303.24C636.149 301.321 633.734 297.204 633.718 295.101C634.713 293.118 647.806 285.507 649.967 285.717C651.039 286.258 651.882 287.49 652.599 288.459Z" fill="#F7F5E3"/>
<path d="M723.498 247.888C725.67 251.638 733.754 264.502 734.282 267.793C734.39 268.462 734.152 268.923 733.748 269.414C732.653 270.751 722.017 276.83 720.049 277.615C719.336 277.898 718.654 277.961 717.89 277.988C716.942 277.038 716.425 276.46 715.585 275.41L708.947 263.986C707.376 261.279 704.672 257.267 704.41 254.233C705.554 252.067 711.262 249.546 713.387 248.146C714.695 247.285 719.227 244.582 720.704 244.896C721.81 245.5 722.795 246.842 723.498 247.888Z" fill="#F7F5E3"/>
<path d="M687.385 267.759C690.055 271.81 692.309 276.425 694.871 280.567C696.629 283.41 697.918 285.833 698.931 289.017C697.489 291.208 685.237 298.379 682.603 298.532C681.631 298.239 680.998 297.296 680.347 296.483C678.212 293.275 669.158 278.321 668.849 275.372C668.785 274.755 669.091 274.283 669.469 273.852C670.528 272.644 681.193 266.538 683.069 265.772C683.766 265.487 684.471 265.44 685.221 265.401C686.069 266.25 686.623 266.836 687.385 267.759Z" fill="#F7F5E3"/>
<path d="M347.593 167.814C349.589 170.875 358.018 185.058 358.565 187.926C358.689 188.569 358.585 188.874 358.186 189.347C356.709 191.109 344.62 198.081 342.494 198.054C341.772 198.045 340.632 196.545 340.074 196C337.768 192.027 329.58 178.924 328.833 175.544C328.685 174.879 328.642 174.348 329.037 173.791C330.021 172.403 340.882 166.213 342.959 165.324C343.616 165.043 344.299 164.935 345.007 164.841C346.122 165.975 346.664 166.515 347.593 167.814Z" fill="#F7F5E3"/>
<path d="M524.208 66.0609C526.243 69.2229 534.348 82.7336 534.912 85.6224C535.051 86.3338 535.054 86.8545 534.637 87.4418C533.58 88.9279 523.36 94.6839 521.187 95.6368C520.411 95.977 519.655 96.1309 518.813 96.2425C517.729 95.2378 517.231 94.7909 516.348 93.6236C513.897 89.4068 505.755 76.6391 505.183 72.6211C505.576 70.9406 510.07 68.6739 511.627 67.8436C513.837 66.6646 519.244 62.7476 521.561 63.1677C522.684 63.7846 523.456 65.0106 524.208 66.0609Z" fill="#F7F5E3"/>
<path d="M453.09 106.259C455.441 109.869 457.523 113.986 459.768 117.696C461.66 120.819 463.591 123.925 464.505 127.467C464.238 127.978 463.96 128.41 463.537 128.797C461.929 130.264 450.167 137.163 448.428 136.939C447.298 136.795 446.459 135.537 445.794 134.682C443.694 131.418 435.087 117.078 434.494 114.067C434.378 113.478 434.506 113.196 434.846 112.747C436.351 110.758 448.232 104.119 450.594 103.858C451.38 104.036 452.524 105.578 453.09 106.259Z" fill="#F7F5E3"/>
<path d="M595.219 25.7152C596.856 28.522 606.213 43.6197 605.8 45.7255C605.608 46.704 604.297 47.6498 603.522 48.1735C601.526 49.5219 591.308 55.7755 589.626 55.2701C588.378 54.8949 587.364 53.2394 586.68 52.1901C584.654 48.6334 575.728 34.5812 575.88 31.5428C576.172 31.0802 576.531 30.717 576.943 30.3703C578.598 28.9793 590.53 21.7943 592.041 22.2461C593.259 22.61 594.545 24.69 595.219 25.7152Z" fill="#F7F5E3"/>
<path d="M559.047 45.4567C560.923 48.3126 570.043 63.5108 570.142 66.0233C570.166 66.6299 569.859 67.0249 569.475 67.4439C567.923 69.1403 558.964 74.1614 556.578 75.2268C555.766 75.5895 554.942 75.8823 554.035 75.9018C553.014 75.5581 552.355 74.5332 551.693 73.6643C549.637 70.6105 540.638 55.5669 540.264 52.7556C540.188 52.1832 540.453 51.8446 540.804 51.4459C542.39 49.6454 554.188 42.8927 556.353 42.7834C557.452 43.2005 558.308 44.4987 559.047 45.4567Z" fill="#F7F5E3"/>
<path d="M545.699 349.036C547.836 352.096 556.937 367.393 557.311 370.242C557.382 370.794 557.103 371.173 556.771 371.56C555.507 373.03 545.453 378.882 543.348 379.638C542.829 379.824 542.231 379.852 541.68 379.89C541.028 379.361 540.388 378.813 539.763 378.248C537.792 375.588 536.215 372.405 534.553 369.538C532.66 366.269 530.516 362.974 528.912 359.557C528.507 358.693 528.107 357.708 527.994 356.759C527.918 356.125 528.177 355.681 528.562 355.229C529.544 354.066 539.847 348.151 541.691 347.424C542.368 347.158 543.027 347.101 543.756 347.074C544.42 347.705 545.058 348.378 545.699 349.036Z" fill="#F7F5E3"/>
<path d="M417.017 126.139C419.259 129.513 428.2 144.385 428.716 147.442C428.813 148.021 428.678 148.35 428.334 148.775C426.997 150.429 415.446 157.245 413.502 157.279C412.59 157.296 411.955 156.43 411.374 155.801C409.372 153.225 399.655 136.574 399.399 133.974C399.342 133.396 399.519 133.055 399.892 132.658C401.016 131.467 411.361 125.51 413.236 124.778C413.907 124.515 414.516 124.469 415.233 124.472L417.017 126.139Z" fill="#F7F5E3"/>
<path d="M616.505 308.316C619.017 312.139 621.211 316.508 623.604 320.439C625.461 323.49 627.243 326.353 628.096 329.835C626.593 332.628 619.059 335.73 616.238 337.709C615.338 338.342 613.464 338.989 612.32 339.07C611.621 338.711 610.845 337.83 610.256 337.239C608.226 334.009 599.231 319.156 598.711 316.298C598.587 315.613 598.573 315.265 599.001 314.719C600.211 313.172 612.067 306.241 613.891 306.252C614.864 306.258 615.884 307.646 616.505 308.316Z" fill="#F7F5E3"/>
<path d="M487.932 85.6418C490.155 89.05 492.197 92.8495 494.25 96.3825C496.332 99.9648 498.66 103.268 499.521 107.323C497.76 110.204 489.506 113.782 486.345 115.757C484.104 117.158 483.23 116.212 481.614 114.435C479.625 111.336 470.561 96.2969 470.158 93.5409C470.054 92.8275 470.216 92.3766 470.675 91.8544C471.806 90.5674 481.92 84.7758 483.861 83.9814C484.567 83.6928 485.226 83.6438 485.984 83.6357L487.932 85.6418Z" fill="#F7F5E3"/>
</svg>
