<svg width="642" height="907" viewBox="0 0 642 907" fill="none" xmlns="http://www.w3.org/2000/svg">
<path d="M74.8101 178.32C87.6607 177.595 99.411 175.442 110.085 182.392C116.803 196.432 111.981 457.811 114.813 495.322C260.524 524.595 383.997 522.021 528.795 494.386C527.742 452.921 523.435 207.289 531.253 183C542.676 174.67 559.412 178.016 573.761 179.069C577.272 207.43 575.797 260.197 575.797 291.179L575.727 483.551C591.27 479.152 607.023 475.642 622.752 471.969C634.105 493.099 636.89 507.864 641.431 531.101C616.596 542.216 583.569 546.592 568.892 553.612C534.928 569.851 481.349 615.552 449.749 640.473C420.185 664.271 390.224 687.531 359.865 710.276C397.48 738.379 435.868 770.367 473.507 799.079C496.517 816.606 544.478 852.642 562.245 872.392C556.018 888.468 549.23 894.435 537.339 906.205C511.919 892.563 442.844 836.028 415.831 814.898L185.41 634.974C157.18 612.837 128.881 589.461 99.5046 568.939C70.7604 548.861 33.6832 542.871 0 532.528C9.97153 476.11 9.26942 467.944 65.6577 483.528L65.6108 286.967C65.564 256.008 64.8853 222.453 66.5238 191.541C66.9685 182.953 69.637 181.83 74.8101 178.32Z" fill="#5E83E6"/>
<path d="M188.34 574.28C269.843 585.298 377.641 584.884 458.56 573.199L405.339 614.901C377.384 636.269 349.593 657.867 321.942 679.65C299.644 662.421 201.289 589.944 188.34 574.28Z" fill="black"/>
<path d="M138.058 217.004L508.738 217.611C506.933 277.92 510.544 341.476 508.27 401.621C386.171 403.7 259.969 401.855 137.472 401.855C136.065 347.665 136.042 270.002 138.058 217.004Z" fill="#5E83E6"/>
<path d="M280.797 709.645C285.327 711.58 311.928 732.439 320.732 738.197C268.624 781.781 170.495 861.011 116.365 901.292C110.209 903.982 112.602 903.226 105.632 903.439C91.5542 897.681 86.8382 885.694 79.1719 872.479C90.6946 859.595 104.54 849.165 118.27 838.853C163.641 804.755 235.194 743.412 280.797 709.645Z" fill="#5E83E6"/>
<path d="M327.623 99.1523C330.105 100.335 337.175 115.545 338.853 118.898C365.618 173.267 380.169 232.83 381.494 293.413C382.773 346.776 368.268 414.169 330.676 453.844C265.972 522.137 179.956 490.953 121.21 434.348C62.851 376.207 27.9037 299.362 14.3676 218.396C13.4278 212.775 12.8221 207.223 12.2734 201.552C120.118 218.382 240.783 180.656 320.545 105.936C322.924 103.708 325.273 101.415 327.623 99.1523Z" fill="#7F1F2F"/>
<path d="M313.41 351.984L314.785 351.93C315.246 352.188 315.85 352.338 315.857 352.892C316.037 367.056 310.932 382.823 303.463 394.441C292.398 411.296 275.113 423.085 255.382 427.238C230.372 432.57 208.236 428.213 186.873 414.462C180.936 410.354 175.416 405.251 170.547 399.94L172.973 397.382C178.311 398.19 183.675 398.811 189.057 399.244C228.281 402.06 273.045 393.062 301.367 363.744C304.938 360.049 309.029 355.708 312.888 352.421L313.41 351.984Z" fill="#5E83E6"/>
<path d="M288.045 212.312C308.569 210.809 331.322 222.176 337.687 242.654C338.591 245.559 339.745 250.487 338.249 253.211C337.991 253.361 337.729 253.507 337.466 253.657C334.971 252.587 329.476 249.162 327.406 247.958C313.177 239.689 295.243 239.435 279.478 242.929C267.624 246.305 256.527 251.791 246.96 259.606C245.168 261.072 240.795 265.371 238.855 265.38C238.034 264.571 237.635 264.038 237.603 262.788C236.855 233.205 261.041 214.986 288.045 212.312Z" fill="#5E83E6"/>
<path d="M144.008 256.062C149.865 255.633 155.753 256.217 161.412 257.787C171.352 260.478 180.874 266.493 186.609 275.45C187.485 276.816 187.617 277.895 187.172 279.366C184.334 279.753 173.251 278.753 169.11 279.007C146.726 280.403 129.032 287.647 113.915 304.056C107.399 311.713 104.635 319.278 101.042 328.463C95.6015 324.551 92.8662 316.645 92.4897 310.175C90.7309 279.945 115.804 258.458 144.008 256.062Z" fill="#5E83E6"/>
<path d="M310.357 0C314.38 2.59151 322.936 10.878 327.289 14.4293C339.478 24.4125 352.279 33.6267 365.61 42.0195C431.141 83.1604 507.437 103.867 584.774 101.501C599.171 101.028 620.249 99.5539 634.263 96.3683C633.938 103.553 632.747 110.369 631.859 117.422C629.793 133.885 626.502 148.371 622.378 164.276C605.032 231.152 571.294 296.58 520.605 344.357C488.574 374.542 445.405 399.282 399.96 398.308C395.749 398.22 374.779 396.225 372.612 393.938L372.871 392.813C383.827 364.24 387.647 341.428 390.5 310.918C419.49 317.838 439.214 330.681 459.397 351.943C459.881 352.451 460.793 352.08 461.384 351.955C461.98 351.36 462.551 350.618 462.493 349.71C459.893 309.469 430.233 279.738 390.683 276.318C389.434 252.798 386.284 229.417 381.265 206.404C378.911 195.934 375.653 185.566 373.096 175.093C386.03 174.873 399.023 171.8 408.8 162.936C412.999 159.129 416.086 155.67 417.64 150.096C403.976 149.887 391.275 152.713 377.47 148.032C373.829 146.798 363.906 144.293 361.648 140.919C356.72 133.562 354.5 124.112 350.238 116.273C344.327 103.889 338.637 93.646 331.992 81.8361C316.175 97.4222 301.13 111.108 282.946 123.948C277.035 128.122 272.169 131.831 265.711 135.279C271.902 94.947 283.794 55.6998 301.029 18.7146C303.799 12.8372 307.122 5.51378 310.357 0Z" fill="#7F1F2F"/>
<path d="M468.008 166.867C469.762 167.303 475.365 172.434 477.227 173.798C499.631 190.186 529.953 197.15 555.61 184.119C558.513 182.645 566.641 177.017 568.574 176.884C573.41 181.203 565.316 196.367 562.396 200.591L561.913 201.217C553.981 211.529 541.246 217.892 528.462 219.517C513.007 221.57 497.377 217.323 485.084 207.732C474.54 199.585 467.804 187.467 466.45 174.213C466.113 171.061 466.059 169.225 468.008 166.867Z" fill="#5E83E6"/>
<path d="M362.386 141.774C375.864 148.256 391.51 150.679 406.68 149.44C408.996 149.25 416.523 147.789 418.245 148.343C418.62 151.416 417.581 152.974 415.588 155.52C407.263 166.259 394.993 173.159 381.646 174.605C378.768 174.931 375.892 175.039 373.04 174.937L362.386 141.774Z" fill="#5E83E6"/>
</svg>
