<svg width="350" height="116" viewBox="0 0 350 116" fill="none" xmlns="http://www.w3.org/2000/svg">
<path d="M10.5 0C10.5 6.4065 18.335 11.6 28 11.6C37.665 11.6 45.5 6.4065 45.5 0H59.5C59.5 6.4065 67.335 11.6 77 11.6C86.665 11.6 94.5 6.4065 94.5 0H108.5C108.5 6.4065 116.335 11.6 126 11.6C135.665 11.6 143.5 6.4065 143.5 0H157.5C157.5 6.4065 165.335 11.6 175 11.6C184.665 11.6 192.5 6.4065 192.5 0H206.5C206.5 6.4065 214.335 11.6 224 11.6C233.665 11.6 241.5 6.4065 241.5 0H255.5C255.5 6.4065 263.335 11.6 273 11.6C282.665 11.6 290.5 6.4065 290.5 0H304.5C304.5 6.4065 312.335 11.6 322 11.6C331.665 11.6 339.5 6.4065 339.5 0H350V13.92C340.335 13.92 332.5 19.1135 332.5 25.52C332.5 31.9265 340.335 37.12 350 37.12V46.4C340.335 46.4 332.5 51.5935 332.5 58C332.5 64.4065 340.335 69.6 350 69.6V78.88C340.335 78.88 332.5 84.0735 332.5 90.48C332.5 96.8865 340.335 102.08 350 102.08V116H339.5C339.5 109.593 331.665 104.4 322 104.4C312.335 104.4 304.5 109.593 304.5 116H290.5C290.5 109.593 282.665 104.4 273 104.4C263.335 104.4 255.5 109.593 255.5 116H241.5C241.5 109.593 233.665 104.4 224 104.4C214.335 104.4 206.5 109.593 206.5 116H192.5C192.5 109.593 184.665 104.4 175 104.4C165.335 104.4 157.5 109.593 157.5 116H143.5C143.5 109.593 135.665 104.4 126 104.4C116.335 104.4 108.5 109.593 108.5 116H94.5C94.5 109.593 86.665 104.4 77 104.4C67.335 104.4 59.5 109.593 59.5 116H45.5C45.5 109.593 37.665 104.4 28 104.4C18.335 104.4 10.5 109.593 10.5 116H0V102.08C9.66498 102.08 17.5 96.8865 17.5 90.48C17.5 84.0735 9.66498 78.88 0 78.88V69.6C9.66498 69.6 17.5 64.4065 17.5 58C17.5 51.5935 9.66498 46.4 0 46.4V37.12C9.66498 37.12 17.5 31.9265 17.5 25.52C17.5 19.1135 9.66498 13.92 0 13.92V0H10.5Z" fill="#F7F5E3"/>
</svg>
