<svg width="350" height="116" viewBox="0 0 350 116" fill="none" xmlns="http://www.w3.org/2000/svg">
<path d="M332.851 0C332.621 0.74964 332.5 1.52545 332.5 2.32C332.5 8.7265 340.335 13.92 350 13.92V18.56C340.335 18.56 332.5 23.7535 332.5 30.16C332.5 36.5665 340.335 41.76 350 41.76V46.4C340.335 46.4 332.5 51.5935 332.5 58C332.5 64.4065 340.335 69.6 350 69.6V74.24C340.335 74.24 332.5 79.4335 332.5 85.84C332.5 92.2465 340.335 97.44 350 97.44V102.08C340.335 102.08 332.5 107.273 332.5 113.68C332.5 114.475 332.621 115.25 332.851 116H17.1493C17.3789 115.25 17.5 114.475 17.5 113.68C17.5 107.273 9.66498 102.08 0 102.08V97.44C9.66498 97.44 17.5 92.2465 17.5 85.84C17.5 79.4335 9.66498 74.24 0 74.24V69.6C9.66498 69.6 17.5 64.4065 17.5 58C17.5 51.5935 9.66498 46.4 0 46.4V41.76C9.66498 41.76 17.5 36.5665 17.5 30.16C17.5 23.7535 9.66498 18.56 0 18.56V13.92C9.66498 13.92 17.5 8.7265 17.5 2.32C17.5 1.52545 17.3789 0.74964 17.1493 0H332.851Z" fill="#F7F5E3"/>
</svg>
